<svg width="238" height="99" viewBox="0 0 238 99" fill="none" xmlns="http://www.w3.org/2000/svg">
<path d="M16.6719 90C18.1654 89.7109 19.2975 88.8678 20.0684 87.4707L20.1045 87.3262V65.3755L20.0684 65.231C19.2975 63.8338 18.1654 62.9907 16.6719 62.7017H27.1143C25.5003 63.0389 24.3682 63.876 23.7178 65.2129L23.6816 65.3755V88.1572H32.751L33.0039 88.1392C33.859 88.0549 35.5272 86.736 38.0083 84.1826L34.6479 90H16.6719ZM37.665 90C39.1585 89.7109 40.2907 88.8678 41.0615 87.4707L41.0977 87.3262V65.3755L41.0615 65.231C40.2907 63.8338 39.1585 62.9907 37.665 62.7017H48.1074C46.4935 63.0389 45.3613 63.876 44.7109 65.2129L44.6748 65.3755V87.3262L44.7109 87.4888C45.3613 88.8257 46.4935 89.6628 48.1074 90H37.665ZM59.1099 64.3638C58.5197 64.5806 58.0801 64.8576 57.791 65.1948C57.4779 65.5562 57.3092 66.1102 57.2852 66.8569V85.8447C57.2852 86.3747 57.3695 86.7782 57.5381 87.0552C57.7669 87.4285 58.056 87.7176 58.4053 87.9224C59.2965 88.368 60.495 88.5908 62.0005 88.5908C62.0487 88.5908 62.0908 88.5908 62.127 88.5908C63.5241 88.5908 64.9212 87.9525 66.3184 86.6758C67.571 85.3268 68.5104 83.8454 69.1367 82.2314C69.7389 80.6777 70.04 78.8711 70.04 76.8115C70.04 76.667 70.04 76.5104 70.04 76.3418C70.04 74.0534 69.8052 72.1805 69.3354 70.7231C68.5526 68.6034 67.5107 66.9954 66.21 65.8994C65.0537 64.9238 63.6626 64.3397 62.0366 64.147C61.7235 64.1108 61.3923 64.0928 61.043 64.0928C60.3805 64.1048 59.7362 64.1951 59.1099 64.3638ZM50.2754 87.3262C50.4681 87.3141 51.1667 87.1816 52.3711 86.9287C52.8649 86.8203 53.2323 86.6698 53.4731 86.4771C53.6297 86.3566 53.708 86.1458 53.708 85.8447V66.8569C53.708 66.5799 53.6117 66.3511 53.4189 66.1704C53.166 65.9295 52.8649 65.779 52.5156 65.7188C51.263 65.514 50.5163 65.3996 50.2754 65.3755L56.4902 63.0088C57.9476 62.5029 59.6217 62.25 61.5127 62.25C61.6693 62.25 61.8379 62.25 62.0186 62.25C63.4036 62.25 64.8851 62.6294 66.4629 63.3882C67.9443 64.1108 69.2873 65.1406 70.4917 66.4775C71.5155 67.6097 72.3586 69.0791 73.021 70.8857C73.6834 72.6924 74.0146 74.5833 74.0146 76.5586C74.0146 78.5339 73.6774 80.3766 73.0029 82.0869C72.3405 83.7852 71.5034 85.2124 70.4917 86.3687C69.4679 87.549 68.1431 88.5306 66.5171 89.3135C64.9393 90.0723 63.3073 90.4517 61.6211 90.4517C59.7542 90.4517 57.8994 90.1084 56.0566 89.4219C53.1901 88.3499 51.263 87.6514 50.2754 87.3262ZM77.4473 90C78.9408 89.7109 80.0729 88.8678 80.8438 87.4707L80.8799 87.3262V65.3755L80.8438 65.231C80.0729 63.8338 78.9408 62.9907 77.4473 62.7017H94.5381L97.8984 68.519C95.4173 65.9657 93.7492 64.6468 92.894 64.5625L92.6411 64.5444H84.457V78.4014H90.1118L90.3647 78.3833C91.2199 78.299 92.888 76.9801 95.3691 74.4268L90.1479 83.478C90.2563 83.0806 90.3105 82.7132 90.3105 82.376C90.3105 81.4847 89.9492 80.7922 89.2266 80.2983L89.1001 80.2441H84.457V88.1572H94.9897L95.2427 88.1392C96.0978 88.0549 97.766 86.736 100.247 84.1826L96.8867 90H77.4473ZM112.225 64.1289C111.286 64.1289 110.364 64.3517 109.461 64.7974C109.1 65.0142 108.811 65.3032 108.594 65.6646C108.425 65.9536 108.341 66.3571 108.341 66.875V75.8721C108.943 76.9922 109.919 77.763 111.268 78.1846C111.846 78.3532 112.406 78.4375 112.948 78.4375C113.008 78.4375 113.074 78.4375 113.146 78.4375C113.195 78.4375 113.436 78.4255 113.869 78.4014C115.013 78.2809 115.977 77.9076 116.76 77.2812C118.181 76.137 118.892 74.1618 118.892 71.3555C118.892 69.9102 118.603 68.6094 118.024 67.4531C117.519 66.4414 116.748 65.6104 115.712 64.96C114.821 64.4059 113.658 64.1289 112.225 64.1289ZM101.331 90C102.825 89.7109 103.957 88.8678 104.728 87.4707L104.764 87.3262V66.875C104.764 66.5859 104.685 66.3752 104.529 66.2427C104.312 66.062 103.945 65.9115 103.427 65.791C102.367 65.5501 101.668 65.4176 101.331 65.3936C102.162 65.0202 104.005 64.3337 106.859 63.334C108.883 62.6234 110.629 62.2681 112.099 62.2681C112.147 62.2681 112.195 62.2681 112.243 62.2681C114.038 62.2681 115.543 62.515 116.76 63.0088C117.988 63.4906 119.012 64.1048 119.831 64.8516C120.951 65.8753 121.746 66.9593 122.216 68.1035C122.529 68.7539 122.722 69.8379 122.794 71.3555C122.734 73.7161 122.047 75.5951 120.734 76.9922C119.735 78.0521 118.615 78.859 117.374 79.4131C117.82 79.666 118.193 79.9731 118.494 80.3345C119.108 81.0812 120.192 83.201 121.746 86.6938L122.125 87.4888C122.643 88.4884 123.27 88.9883 124.004 88.9883C124.028 88.9883 124.053 88.9883 124.077 88.9883C124.727 88.9883 125.329 88.7594 125.883 88.3018C126.486 87.7718 126.949 87.3864 127.274 87.1455C127.118 88.6631 126.612 89.8675 125.757 90.7588C124.817 91.7344 123.848 92.2222 122.848 92.2222C122.824 92.2222 122.8 92.2222 122.776 92.2222C121.632 92.2222 120.638 91.6561 119.795 90.5239C119.614 90.283 119.253 89.6567 118.711 88.645L116.127 83.1709C115.32 81.6051 114.459 80.6356 113.544 80.2622L113.436 80.2261C113.171 80.2261 112.894 80.2201 112.604 80.208C110.87 80.1357 109.449 79.6299 108.341 78.6904V87.3262L108.377 87.4888C109.027 88.8257 110.16 89.6628 111.773 90H101.331ZM124.926 90C126.407 89.7109 127.533 88.8678 128.304 87.4707L128.358 87.3262L138.024 61.979L147.87 87.3262L147.888 87.3804L147.942 87.543C148.713 88.8919 149.833 89.7109 151.303 90H140.86C143.161 89.3255 144.311 88.5788 144.311 87.7598C144.311 87.6755 144.299 87.5851 144.275 87.4888L144.221 87.3262L141.457 80.2441H133.128L130.472 87.3262L130.418 87.5068C130.394 87.5791 130.382 87.6574 130.382 87.7417C130.382 88.4764 131.532 89.2292 133.833 90H124.926ZM133.814 78.4014H140.752L137.247 68.8623L133.814 78.4014ZM151.122 90C152.616 89.7109 153.748 88.8678 154.519 87.4707L154.555 87.3262V61.979L171.501 82.0508V65.3755L171.465 65.231C170.694 63.8338 169.562 62.9907 168.068 62.7017H176.957C175.343 63.0389 174.211 63.876 173.561 65.2129L173.524 65.3755V90.7227L156.578 70.4702V87.3262L156.614 87.4888C157.265 88.8257 158.397 89.6628 160.011 90H151.122ZM181.185 82.0508C180.655 80.3646 180.39 78.5339 180.39 76.5586C180.39 74.5833 180.655 72.6803 181.185 70.8496C181.727 68.9827 182.449 67.4531 183.353 66.2607C184.292 65.0202 185.376 64.0446 186.604 63.334C187.845 62.6113 189.098 62.25 190.362 62.25H190.543C191.94 62.25 193.235 62.5632 194.427 63.1895C195.246 63.623 195.897 64.0627 196.378 64.5083L196.523 64.5264C197.727 64.43 198.522 63.6652 198.908 62.2319V72.6743C198.281 70.2173 197.547 68.2902 196.704 66.8931C196.294 66.2547 195.77 65.7007 195.132 65.231C194.144 64.5083 192.976 64.147 191.627 64.147C190.073 64.147 188.64 64.6649 187.327 65.7007C186.376 66.7967 185.617 68.3685 185.051 70.416C184.497 72.4274 184.22 74.3846 184.22 76.2876V76.5225C184.22 78.4014 184.412 80.1117 184.798 81.6533C185.689 84.3031 186.761 86.1458 188.014 87.1816C189.037 88.0247 190.356 88.4463 191.97 88.4463C192.247 88.4463 192.53 88.4342 192.819 88.4102C193.711 88.3379 194.71 87.9525 195.818 87.2539C196.433 86.8805 197.119 86.2181 197.878 85.2666C198.36 84.6644 198.757 83.8695 199.07 82.8818L200.913 83.6045C200.443 84.6764 199.913 85.6038 199.323 86.3867C198.384 87.6393 197.3 88.6089 196.071 89.2954C194.999 89.8976 193.801 90.265 192.476 90.3975C192.741 90.9395 192.958 91.5838 193.126 92.3306C193.223 92.7521 193.271 93.2941 193.271 93.9565C193.271 94.354 193.205 94.7816 193.072 95.2393C193 95.4922 192.91 95.7511 192.801 96.0161C192.488 96.7629 192.024 97.2747 191.41 97.5518C191.001 97.7324 190.609 97.8228 190.236 97.8228C190.031 97.8228 189.832 97.7987 189.64 97.7505C189.001 97.5939 188.526 97.2266 188.212 96.6484C188.008 96.2751 187.905 95.8896 187.905 95.4922C187.905 95.2754 187.935 95.0586 187.996 94.8418C188.188 94.1673 188.574 93.6554 189.152 93.3062C189.477 93.1134 189.838 93.0171 190.236 93.0171C190.525 93.0171 190.832 93.0713 191.157 93.1797L191.175 92.71V92.4751C191.175 91.9813 191.097 91.4634 190.94 90.9214C190.892 90.7528 190.838 90.5902 190.778 90.4336C189.164 90.3734 187.785 90.0181 186.641 89.3677C185.376 88.645 184.28 87.6694 183.353 86.4409C182.449 85.2365 181.727 83.7731 181.185 82.0508ZM201.455 90C202.937 89.7109 204.063 88.8678 204.833 87.4707L204.888 87.3262L214.553 61.979L224.399 87.3262L224.417 87.3804L224.472 87.543C225.243 88.8919 226.363 89.7109 227.832 90H217.39C219.69 89.3255 220.84 88.5788 220.84 87.7598C220.84 87.6755 220.828 87.5851 220.804 87.4888L220.75 87.3262L217.986 80.2441H209.657L207.001 87.3262L206.947 87.5068C206.923 87.5791 206.911 87.6574 206.911 87.7417C206.911 88.4764 208.061 89.2292 210.362 90H201.455ZM210.344 78.4014H217.281L213.776 68.8623L210.344 78.4014Z" fill="white"/>
<path d="M10.9019 31.536C13.2326 28.04 15.2566 25.6633 16.9739 24.406C18.6912 23.118 20.1939 22.474 21.4819 22.474C22.7699 22.474 23.7666 22.8727 24.4719 23.67C25.1772 24.4367 25.5299 25.418 25.5299 26.614C25.5299 29.926 24.3339 32.9927 21.9419 35.814C19.5806 38.6047 16.9126 40 13.9379 40C12.6192 40 11.5766 39.77 10.8099 39.31L11.9139 37.332C13.5086 37.5467 14.5052 37.654 14.9039 37.654C16.5599 37.654 18.1086 36.688 19.5499 34.756C20.9912 32.824 21.7119 30.846 21.7119 28.822C21.7119 28.0553 21.4819 27.4267 21.0219 26.936C20.5926 26.4147 20.0252 26.154 19.3199 26.154C17.6332 26.154 15.7166 27.6413 13.5699 30.616C11.4539 33.5907 9.46056 37.2707 7.58989 41.656C5.74989 46.072 4.13989 50.764 2.75989 55.732L-0.000109449 54.766C0.0612238 54.582 0.64389 52.9873 1.74789 49.982C2.82122 47.0073 3.87922 44.048 4.92189 41.104C7.80456 33.008 9.24589 28.5767 9.24589 27.81C9.24589 25.8473 8.84722 24.0687 8.04989 22.474L10.3499 21.324C11.3006 22.6427 11.7759 24.038 11.7759 25.51C11.7759 26.9513 11.4846 28.96 10.9019 31.536ZM39.7033 23.716C40.4699 23.716 41.0986 23.9767 41.5893 24.498C42.0799 25.0193 42.3253 25.694 42.3253 26.522C42.3253 28.178 41.3746 29.926 39.4733 31.766L38.3693 30.892C38.7986 29.9413 39.0133 29.2513 39.0133 28.822C39.0133 27.994 38.5533 27.58 37.6333 27.58C36.7133 27.58 35.8393 28.1627 35.0113 29.328C34.1833 30.4933 33.2019 32.3027 32.0673 34.756C30.9633 37.1787 30.1199 38.896 29.5373 39.908L26.9153 38.758C28.6019 34.9247 29.5679 32.6707 29.8133 31.996C30.6413 29.604 31.0553 26.568 31.0553 22.888L33.6313 22.198C33.5393 24.1913 33.4013 25.74 33.2173 26.844C33.0333 27.9173 32.5886 29.6807 31.8833 32.134C34.9806 26.522 37.5873 23.716 39.7033 23.716ZM56.2848 26.338C57.0822 27.6567 57.4808 29.1133 57.4808 30.708C57.4808 33.192 56.6222 35.4153 54.9048 37.378C53.1875 39.31 51.1635 40.276 48.8328 40.276C47.0542 40.276 45.6588 39.77 44.6468 38.758C43.6655 37.7153 43.1748 36.2893 43.1748 34.48C43.1748 31.5667 44.3095 28.96 46.5788 26.66C48.8482 24.3293 51.3935 23.164 54.2148 23.164C54.7362 23.164 55.1042 23.1793 55.3188 23.21L55.4568 24.728C53.0035 24.728 50.9642 25.4333 49.3388 26.844C47.7135 28.2547 46.9008 30.064 46.9008 32.272C46.9008 33.5907 47.2228 34.664 47.8668 35.492C48.5108 36.2893 49.4462 36.688 50.6728 36.688C51.9302 36.688 52.9268 36.136 53.6628 35.032C54.3988 33.928 54.7668 32.64 54.7668 31.168C54.7668 29.6653 54.4755 28.3007 53.8928 27.074L56.2848 26.338ZM78.2294 38.344L78.2754 39.448C77.9687 39.632 76.5734 40.184 74.0894 41.104C73.108 46.9613 71.6667 51.1933 69.7654 53.8C67.864 56.4067 65.5334 57.71 62.7734 57.71C61.4854 57.71 60.458 57.296 59.6914 56.468C58.9247 55.64 58.5414 54.5667 58.5414 53.248C58.5414 50.6107 59.7527 48.142 62.1754 45.842C64.598 43.5727 67.8334 41.7787 71.8814 40.46C72.3414 38.4053 73.1694 35.5073 74.3654 31.766C72.3107 34.894 70.44 37.01 68.7534 38.114C67.0974 39.218 65.5947 39.77 64.2454 39.77C62.896 39.77 61.8687 39.402 61.1634 38.666C60.4887 37.93 60.1514 36.9487 60.1514 35.722C60.1514 33.698 60.9947 31.6433 62.6814 29.558C64.368 27.442 66.484 25.7247 69.0294 24.406C71.6054 23.0567 74.0894 22.382 76.4814 22.382L76.8494 23.992C73.4454 24.36 70.5167 25.556 68.0634 27.58C65.6407 29.604 64.4294 31.5513 64.4294 33.422C64.4294 34.2193 64.6747 34.8787 65.1654 35.4C65.656 35.9213 66.254 36.182 66.9594 36.182C68.002 36.182 69.5814 35.078 71.6974 32.87C73.8134 30.662 75.3007 28.776 76.1594 27.212L77.8614 28.178C76.1747 32.686 75.0094 36.4887 74.3654 39.586L78.2294 38.344ZM71.6054 41.84C68.9374 43.0667 66.7294 44.5387 64.9814 46.256C63.2334 47.9733 62.3594 49.5373 62.3594 50.948C62.3594 51.684 62.574 52.282 63.0034 52.742C63.4327 53.202 63.9694 53.432 64.6134 53.432C65.9014 53.432 67.174 52.5273 68.4314 50.718C69.6887 48.9087 70.7467 45.9493 71.6054 41.84ZM91.9474 23.716C92.7141 23.716 93.3428 23.9767 93.8334 24.498C94.3241 25.0193 94.5694 25.694 94.5694 26.522C94.5694 28.178 93.6188 29.926 91.7174 31.766L90.6134 30.892C91.0428 29.9413 91.2574 29.2513 91.2574 28.822C91.2574 27.994 90.7974 27.58 89.8774 27.58C88.9574 27.58 88.0834 28.1627 87.2554 29.328C86.4274 30.4933 85.4461 32.3027 84.3114 34.756C83.2074 37.1787 82.3641 38.896 81.7814 39.908L79.1594 38.758C80.8461 34.9247 81.8121 32.6707 82.0574 31.996C82.8854 29.604 83.2994 26.568 83.2994 22.888L85.8754 22.198C85.7834 24.1913 85.6454 25.74 85.4614 26.844C85.2774 27.9173 84.8328 29.6807 84.1274 32.134C87.2248 26.522 89.8314 23.716 91.9474 23.716ZM115.153 35.354L116.211 36.136C115.782 37.056 114.984 37.93 113.819 38.758C112.684 39.586 111.642 40 110.691 40C108.882 40 107.977 39.0493 107.977 37.148C107.977 36.2587 108.207 35.2007 108.667 33.974L106.965 35.722C105.309 37.4087 103.868 38.5433 102.641 39.126C101.445 39.7087 100.264 40 99.099 40C97.9337 40 97.0443 39.678 96.431 39.034C95.8483 38.3593 95.557 37.4393 95.557 36.274C95.557 34.1273 96.385 32.0113 98.041 29.926C99.697 27.81 101.813 26.0927 104.389 24.774C106.965 23.4553 109.541 22.7807 112.117 22.75L112.209 24.268L110.277 24.682C107.486 25.2953 105.018 26.522 102.871 28.362C100.755 30.202 99.697 32.042 99.697 33.882C99.697 35.6913 100.433 36.596 101.905 36.596C103.285 36.596 104.987 35.63 107.011 33.698C109.035 31.766 110.722 29.4967 112.071 26.89L114.003 28.04C112.102 31.8733 111.151 34.3113 111.151 35.354C111.151 35.7833 111.289 36.1513 111.565 36.458C111.872 36.734 112.163 36.872 112.439 36.872C112.746 36.872 112.945 36.8567 113.037 36.826C113.129 36.7953 113.221 36.7647 113.313 36.734C113.405 36.6727 113.512 36.596 113.635 36.504C113.788 36.412 113.911 36.32 114.003 36.228C114.126 36.136 114.31 35.998 114.555 35.814C114.8 35.63 115 35.4767 115.153 35.354ZM148.123 34.02L149.089 34.94C147.341 38.068 145.333 39.632 143.063 39.632C142.143 39.632 141.423 39.3867 140.901 38.896C140.411 38.3747 140.165 37.7 140.165 36.872C140.165 36.0133 140.671 34.5567 141.683 32.502C142.695 30.4473 143.232 28.8833 143.293 27.81C143.324 27.3193 143.171 26.9207 142.833 26.614C142.527 26.3073 142.097 26.154 141.545 26.154C140.993 26.154 140.426 26.292 139.843 26.568C139.291 26.8133 138.739 27.2273 138.187 27.81C137.666 28.3927 137.175 28.96 136.715 29.512C136.286 30.064 135.795 30.846 135.243 31.858C134.722 32.87 134.277 33.7133 133.909 34.388C133.265 35.6453 132.345 37.5313 131.149 40.046L128.389 39.08C128.389 38.988 128.895 37.2553 129.907 33.882C130.919 30.5087 131.425 28.5 131.425 27.856C131.425 27.212 131.272 26.752 130.965 26.476C130.659 26.1693 130.275 26.016 129.815 26.016C128.435 26.016 126.519 27.7333 124.065 31.168C121.643 34.6027 120.094 37.5313 119.419 39.954L116.797 39.08C116.951 37.4547 117.671 34.5413 118.959 30.34C120.247 26.108 121.336 23.2253 122.225 21.692L124.295 22.428C123.345 24.544 122.685 26.338 122.317 27.81C121.949 29.2513 121.627 30.8 121.351 32.456C123.989 28.684 126.197 26.0467 127.975 24.544C129.754 23.0107 131.364 22.244 132.805 22.244C134.369 22.244 135.151 23.026 135.151 24.59C135.151 25.2033 134.875 26.4147 134.323 28.224C133.802 30.0333 133.388 31.4593 133.081 32.502C137.313 25.694 141.101 22.29 144.443 22.29C145.271 22.29 145.931 22.5507 146.421 23.072C146.912 23.5627 147.157 24.314 147.157 25.326C147.157 26.3073 146.575 27.948 145.409 30.248C144.275 32.548 143.707 34.0047 143.707 34.618C143.707 35.2007 143.83 35.63 144.075 35.906C144.321 36.182 144.627 36.32 144.995 36.32C145.793 36.32 146.835 35.5533 148.123 34.02ZM169.913 35.354L170.971 36.136C170.541 37.056 169.744 37.93 168.579 38.758C167.444 39.586 166.401 40 165.451 40C163.641 40 162.737 39.0493 162.737 37.148C162.737 36.2587 162.967 35.2007 163.427 33.974L161.725 35.722C160.069 37.4087 158.627 38.5433 157.401 39.126C156.205 39.7087 155.024 40 153.859 40C152.693 40 151.804 39.678 151.191 39.034C150.608 38.3593 150.317 37.4393 150.317 36.274C150.317 34.1273 151.145 32.0113 152.801 29.926C154.457 27.81 156.573 26.0927 159.149 24.774C161.725 23.4553 164.301 22.7807 166.877 22.75L166.969 24.268L165.037 24.682C162.246 25.2953 159.777 26.522 157.631 28.362C155.515 30.202 154.457 32.042 154.457 33.882C154.457 35.6913 155.193 36.596 156.665 36.596C158.045 36.596 159.747 35.63 161.771 33.698C163.795 31.766 165.481 29.4967 166.831 26.89L168.763 28.04C166.861 31.8733 165.911 34.3113 165.911 35.354C165.911 35.7833 166.049 36.1513 166.325 36.458C166.631 36.734 166.923 36.872 167.199 36.872C167.505 36.872 167.705 36.8567 167.797 36.826C167.889 36.7953 167.981 36.7647 168.073 36.734C168.165 36.6727 168.272 36.596 168.395 36.504C168.548 36.412 168.671 36.32 168.763 36.228C168.885 36.136 169.069 35.998 169.315 35.814C169.56 35.63 169.759 35.4767 169.913 35.354ZM219.787 6.006L222.133 6.834L221.489 8.03C218.115 14.3167 215.248 20.404 212.887 26.292C211.323 30.156 210.541 33.054 210.541 34.986C210.541 35.4767 210.663 35.8753 210.909 36.182C211.154 36.458 211.537 36.596 212.059 36.596C212.611 36.596 213.239 36.2433 213.945 35.538L214.773 36.32C214.374 37.2093 213.684 38.0373 212.703 38.804C211.721 39.54 210.771 39.908 209.851 39.908C208.072 39.908 207.183 38.8653 207.183 36.78C207.183 35.5533 207.52 33.6673 208.195 31.122C204.576 37.4393 201.034 40.598 197.569 40.598C196.373 40.598 195.422 40.23 194.717 39.494C194.011 38.758 193.659 37.7613 193.659 36.504C193.659 34.5107 194.456 32.4407 196.051 30.294C197.645 28.1473 199.608 26.3993 201.939 25.05C204.269 23.67 206.447 22.98 208.471 22.98L208.609 24.59C205.971 24.9273 203.503 26.0773 201.203 28.04C198.933 29.972 197.799 31.95 197.799 33.974C197.799 34.8327 198.029 35.5227 198.489 36.044C198.949 36.5347 199.547 36.78 200.283 36.78C201.785 36.78 203.748 35.17 206.171 31.95C207.06 30.7847 208.072 29.0827 209.207 26.844C210.372 24.6053 211.292 22.8113 211.967 21.462C212.672 20.082 213.347 18.748 213.991 17.46C214.665 16.1413 215.539 14.424 216.613 12.308C217.686 10.1613 218.744 8.06066 219.787 6.006ZM232.418 34.572L233.476 35.4C232.525 36.7187 231.222 37.8227 229.566 38.712C227.91 39.5707 226.3 40 224.736 40C223.172 40 221.915 39.54 220.964 38.62C220.013 37.7 219.538 36.4887 219.538 34.986C219.538 32.1647 221.025 29.3893 224 26.66C227.005 23.9307 230.041 22.566 233.108 22.566C235.132 22.566 236.144 23.3633 236.144 24.958C236.144 26.614 235.071 28.2853 232.924 29.972C230.808 31.6587 227.818 33.192 223.954 34.572C224.23 35.2773 224.659 35.8293 225.242 36.228C225.825 36.6267 226.423 36.826 227.036 36.826C228.355 36.826 230.149 36.0747 232.418 34.572ZM223.724 33.192C226.208 32.3333 228.339 31.26 230.118 29.972C231.897 28.684 232.786 27.5033 232.786 26.43C232.786 26.0313 232.633 25.6787 232.326 25.372C232.019 25.0653 231.667 24.912 231.268 24.912C229.827 24.912 228.263 25.8167 226.576 27.626C224.92 29.4047 223.969 31.26 223.724 33.192Z" fill="white"/>
</svg>
