<svg width="220" height="60" viewBox="0 0 220 60" fill="none" xmlns="http://www.w3.org/2000/svg">
<path d="M86.8711 26.1514C87.541 31.6702 88.6974 35.626 90.3403 38.0186L90.7949 38.5449C91.0501 38.9118 91.6882 39.4541 92.709 40.1719C94.5273 41.4479 96.6807 42.0859 99.1689 42.0859C99.2008 42.0859 99.2327 42.0859 99.2646 42.0859C100.254 42.0859 100.812 42.07 100.939 42.0381C103.3 41.5596 105.118 40.3154 106.395 38.3057C107.24 36.8382 107.663 35.299 107.663 33.688V33.0659C107.519 31.0721 106.155 29.5169 103.571 28.4004L95.4365 24.668C91.3851 22.7858 89.3434 20.0264 89.3115 16.3896V15.9111C89.3753 13.4388 90.2686 11.3812 91.9912 9.73828C93.7298 8.07943 95.915 7.25 98.5469 7.25C98.5947 7.25 98.6426 7.25 98.6904 7.25C101.338 7.25 103.42 8.24691 104.935 10.2407L105.126 10.2646C106.323 10.137 107.176 9.13216 107.687 7.25V21.0791C106.729 17.1393 105.741 14.4915 104.72 13.1357L103.906 12.1309C103.667 11.9076 103.252 11.5566 102.662 11.0781C101.434 10.0732 100.174 9.56283 98.8818 9.54688C98.8818 9.54688 98.8579 9.54688 98.8101 9.54688C97.2629 9.54688 95.9948 10.0094 95.0059 10.9346C93.985 11.8916 93.4746 13.2155 93.4746 14.9062C93.4746 14.9541 93.4746 15.002 93.4746 15.0498C93.4746 17.2669 94.958 19.0374 97.9248 20.3613L106.634 24.2373C110.223 25.8324 112.137 28.7274 112.376 32.9224V33.8555C111.897 36.9818 110.574 39.5179 108.404 41.4639C106.283 43.5534 103.476 44.5981 99.9824 44.5981H99.791C98.6426 44.5981 96.9837 44.2712 94.8145 43.6172L90.3403 41.7031L90.0293 41.5835C88.4342 41.7111 87.3815 42.724 86.8711 44.6221V26.1514ZM122.616 44C124.594 43.6172 126.093 42.5007 127.114 40.6504L127.162 40.459V10.2886H120.295L119.96 10.3125C118.828 10.4242 116.619 12.1707 113.333 15.5522L117.783 7.84814H141.278L145.729 15.5522C142.443 12.1707 140.234 10.4242 139.101 10.3125L138.766 10.2886H131.899V40.459L131.947 40.6743C132.809 42.4448 134.308 43.5534 136.445 44H122.616ZM145.25 44C147.228 43.6172 148.727 42.5007 149.748 40.6504L149.796 40.459V11.3892L149.748 11.1978C148.727 9.34749 147.228 8.23096 145.25 7.84814H167.884L172.334 15.5522C169.048 12.1707 166.839 10.4242 165.707 10.3125L165.372 10.2886H154.533V28.6396H162.022L162.357 28.6157C163.489 28.5041 165.699 26.7575 168.984 23.376L162.07 35.3628C162.213 34.8364 162.285 34.3499 162.285 33.9033C162.285 32.723 161.807 31.8058 160.85 31.1519L160.682 31.0801H154.533V41.5596H168.482L168.817 41.5356C169.949 41.424 172.159 39.6774 175.444 36.2959L170.994 44H145.25ZM174.966 44C177.103 43.5534 178.603 42.4448 179.464 40.6743L179.512 40.459L184.536 6.89111L197.432 35.937L209.778 6.89111L214.778 40.459L214.826 40.6743C215.688 42.4448 217.187 43.5534 219.324 44H205.495C208.542 42.8675 210.065 41.7909 210.065 40.77C210.065 40.7381 210.065 40.6982 210.065 40.6504L210.041 40.459L206.907 19.811L196.021 44.957L185.015 19.5957L182.191 40.459L182.167 40.7461C182.199 41.7031 183.723 42.7878 186.737 44H174.966Z" fill="white"/>
<path d="M18.216 39.642L19.274 40.516C17.986 42.6627 16.3147 43.736 14.26 43.736C12.4813 43.736 11.592 42.862 11.592 41.114C11.592 40.102 12.0213 38.492 12.88 36.284C13.7693 34.0453 14.214 32.5733 14.214 31.868C14.214 30.9787 13.6467 30.534 12.512 30.534C11.3773 30.534 9.82867 31.7607 7.866 34.214C5.934 36.6367 4.30867 39.458 2.99 42.678L0.276 41.712C1.87067 33.708 6.04133 22.99 12.788 9.558L15.042 10.294C11.638 17.102 9.2 22.5147 7.728 26.532C6.19467 30.7027 5.04467 34.1527 4.278 36.882C6.63933 32.9873 8.66333 30.2887 10.35 28.786C12.0673 27.2833 13.5547 26.532 14.812 26.532C17.0813 26.532 18.216 27.3447 18.216 28.97C18.216 29.982 17.6487 31.7913 16.514 34.398C15.3793 37.0047 14.812 38.7373 14.812 39.596C14.812 40.4547 15.226 40.884 16.054 40.884C16.4833 40.884 17.204 40.47 18.216 39.642ZM40.0944 38.354L41.1524 39.136C40.7231 40.056 39.9257 40.93 38.7604 41.758C37.6257 42.586 36.5831 43 35.6324 43C33.8231 43 32.9184 42.0493 32.9184 40.148C32.9184 39.2587 33.1484 38.2007 33.6084 36.974L31.9064 38.722C30.2504 40.4087 28.8091 41.5433 27.5824 42.126C26.3864 42.7087 25.2057 43 24.0404 43C22.8751 43 21.9857 42.678 21.3724 42.034C20.7897 41.3593 20.4984 40.4393 20.4984 39.274C20.4984 37.1273 21.3264 35.0113 22.9824 32.926C24.6384 30.81 26.7544 29.0927 29.3304 27.774C31.9064 26.4553 34.4824 25.7807 37.0584 25.75L37.1504 27.268L35.2184 27.682C32.4277 28.2953 29.9591 29.522 27.8124 31.362C25.6964 33.202 24.6384 35.042 24.6384 36.882C24.6384 38.6913 25.3744 39.596 26.8464 39.596C28.2264 39.596 29.9284 38.63 31.9524 36.698C33.9764 34.766 35.6631 32.4967 37.0124 29.89L38.9444 31.04C37.0431 34.8733 36.0924 37.3113 36.0924 38.354C36.0924 38.7833 36.2304 39.1513 36.5064 39.458C36.8131 39.734 37.1044 39.872 37.3804 39.872C37.6871 39.872 37.8864 39.8567 37.9784 39.826C38.0704 39.7953 38.1624 39.7647 38.2544 39.734C38.3464 39.6727 38.4537 39.596 38.5764 39.504C38.7297 39.412 38.8524 39.32 38.9444 39.228C39.0671 39.136 39.2511 38.998 39.4964 38.814C39.7417 38.63 39.9411 38.4767 40.0944 38.354ZM54.3889 36.468L55.4929 37.388C54.7569 39.0747 53.5762 40.424 51.9509 41.436C50.3256 42.448 48.7462 42.954 47.2129 42.954C45.7102 42.954 44.4529 42.4787 43.4409 41.528C42.4596 40.5773 41.9689 39.274 41.9689 37.618C41.9689 35.962 42.6896 34.168 44.1309 32.236C45.5722 30.304 47.4276 28.7093 49.6969 27.452C51.9969 26.1947 54.2509 25.566 56.4589 25.566C56.7656 25.566 57.2256 25.5967 57.8389 25.658L57.7009 27.452C54.3276 27.6053 51.5216 28.6327 49.2829 30.534C47.0749 32.4353 45.9709 34.4593 45.9709 36.606C45.9709 37.4953 46.2469 38.216 46.7989 38.768C47.3509 39.32 48.0716 39.596 48.9609 39.596C50.3716 39.596 52.1809 38.5533 54.3889 36.468ZM77.3077 38.308L78.4577 39.32C76.679 42.2333 74.793 43.69 72.7997 43.69C71.573 43.69 70.3157 42.7853 69.0277 40.976C67.7397 39.1667 67.0957 37.6793 67.0957 36.514C67.0957 35.778 68.1997 35.042 70.4077 34.306C71.2357 34.03 71.987 33.616 72.6617 33.064C73.367 32.4813 73.7197 31.8833 73.7197 31.27C73.7197 30.6567 73.551 30.1967 73.2137 29.89C72.8763 29.5527 72.447 29.384 71.9257 29.384C68.5523 29.6907 65.0257 34.2293 61.3457 43L58.5397 42.034C58.5397 40.7153 60.3183 35.3793 63.8757 26.026C67.4637 16.6727 70.009 11.0147 71.5117 9.052L73.7657 9.88C69.6257 17.0867 66.1603 25.4587 63.3697 34.996C65.7617 31.408 67.8163 29.016 69.5337 27.82C71.251 26.624 72.8917 26.026 74.4557 26.026C75.4063 26.026 76.1577 26.3173 76.7097 26.9C77.2923 27.4827 77.5837 28.234 77.5837 29.154C77.5837 30.0433 77.3537 30.856 76.8937 31.592C76.4643 32.328 75.8357 32.972 75.0077 33.524C73.8117 34.3213 72.3397 35.1033 70.5917 35.87C70.8677 37.3113 71.343 38.4 72.0177 39.136C72.6923 39.872 73.459 40.24 74.3177 40.24C74.7777 40.24 75.7743 39.596 77.3077 38.308Z" fill="white"/>
</svg>
