<svg width="83" height="56" viewBox="0 0 83 56" fill="none" xmlns="http://www.w3.org/2000/svg">
<path d="M1.61426 14.1712C1.991 17.2689 2.64133 19.4891 3.56523 20.8321L3.8209 21.1275C3.96443 21.3334 4.32322 21.6378 4.89731 22.0407C5.91987 22.7569 7.13084 23.115 8.53016 23.115C8.54812 23.115 8.56605 23.115 8.58397 23.115C9.14014 23.115 9.45408 23.1061 9.52586 23.0882C10.8534 22.8196 11.876 22.1213 12.5936 20.9932C13.069 20.1696 13.3067 19.3056 13.3067 18.4014V18.0522C13.226 16.9331 12.459 16.0602 11.0059 15.4336L6.43119 13.3386C4.15277 12.2822 3.00462 10.7333 2.98668 8.69208V8.42352C3.02256 7.03584 3.52489 5.88092 4.49363 4.95877C5.47137 4.02768 6.70027 3.56215 8.18033 3.56215C8.20725 3.56215 8.23415 3.56215 8.26107 3.56215C9.75009 3.56215 10.9207 4.12169 11.7728 5.24079L11.8805 5.25421C12.5532 5.18261 13.0331 4.6186 13.3202 3.56215V11.3242C12.782 9.11288 12.2258 7.62672 11.6518 6.86572L11.1943 6.30171C11.0597 6.17636 10.8265 5.9794 10.4946 5.71083C9.80391 5.14679 9.09529 4.86029 8.3687 4.85134C8.3687 4.85134 8.35526 4.85134 8.32833 4.85134C7.45826 4.85134 6.74512 5.111 6.18899 5.63024C5.6149 6.16741 5.32785 6.91049 5.32785 7.85951C5.32785 7.88635 5.32785 7.91322 5.32785 7.94006C5.32785 9.18449 6.16207 10.1783 7.8305 10.9213L12.7282 13.0969C14.7464 13.9921 15.8228 15.6171 15.9574 17.9716V18.4954C15.6883 20.2502 14.9438 21.6736 13.7238 22.7659C12.5308 23.9387 10.9521 24.5251 8.98765 24.5251H8.87998C8.23414 24.5251 7.30126 24.3416 6.08136 23.9745L3.56523 22.9002L3.39033 22.833C2.49332 22.9047 1.9013 23.4731 1.61426 24.5385V14.1712ZM21.7161 24.1894C22.8284 23.9745 23.6716 23.3478 24.2457 22.3093L24.2726 22.2019V5.26767H20.411L20.2226 5.28109C19.5858 5.34375 18.3434 6.32408 16.4956 8.22208L18.9982 3.89789H32.2111L34.7139 8.22208C32.8659 6.32408 31.6236 5.34375 30.9867 5.28109L30.7983 5.26767H26.9367V22.2019L26.9636 22.3227C27.448 23.3165 28.2912 23.9387 29.4932 24.1894H21.7161ZM34.4446 24.1894C35.5568 23.9745 36.4001 23.3478 36.9742 22.3093L37.001 22.2019V5.88539L36.9742 5.77796C36.4001 4.73944 35.5568 4.11274 34.4446 3.89789H47.1732L49.6758 8.22208C47.8279 6.32408 46.5856 5.34375 45.9488 5.28109L45.7602 5.26767H39.6653V15.5678H43.8768L44.065 15.5544C44.7018 15.4917 45.9441 14.5114 47.792 12.6134L43.9037 19.3414C43.9843 19.046 44.0245 18.7729 44.0245 18.5223C44.0245 17.8597 43.7556 17.345 43.2174 16.9779L43.1231 16.9376H39.6653V22.8196H47.5095L47.6978 22.8062C48.3349 22.7435 49.5772 21.7632 51.4251 19.8652L48.9222 24.1894H34.4446ZM51.1559 24.1894C52.3577 23.9387 53.201 23.3165 53.6854 22.3227L53.7123 22.2019L56.5379 3.36072L63.7901 19.6637L70.7329 3.36072L73.545 22.2019L73.5722 22.3227C74.0562 23.3165 74.8995 23.9387 76.1017 24.1894H68.3246C70.0377 23.5537 70.8946 22.9494 70.8946 22.3764C70.8946 22.3585 70.8946 22.3361 70.8946 22.3093L70.881 22.2019L69.1184 10.6125L62.9963 24.7265L56.8068 10.4916L55.2192 22.2019L55.2059 22.363C55.2239 22.9002 56.0804 23.509 57.7756 24.1894H51.1559Z" fill="white"/>
<path d="M44.6794 45.6165L44.266 46.5516C42.4656 46.2398 41.4278 46.0748 41.1522 46.0565C40.2521 48.495 38.966 50.4202 37.2944 51.8322C35.6227 53.2441 33.7489 53.9499 31.6729 53.9499C30.5523 53.9499 29.6154 53.6474 28.8622 53.0423C28.109 52.4372 27.7324 51.6854 27.7324 50.787C27.7324 49.2101 28.8163 47.826 30.984 46.6341C33.1701 45.4422 35.8156 44.8464 38.9202 44.8464C39.3428 44.8464 39.6642 44.8557 39.8846 44.8739C40.2153 44.1771 40.4816 43.4345 40.6837 42.6462C39.5081 43.4345 38.2495 43.8288 36.9086 43.8288C35.5859 43.8288 34.4743 43.3612 33.5743 42.4261C32.6925 41.4728 32.2516 40.2259 32.2516 38.6857C32.2516 37.1274 32.766 35.4954 33.7947 33.7902C34.8419 32.0667 36.2104 30.6457 37.9006 29.5273C39.6091 28.4088 41.3451 27.8496 43.1087 27.8496C44.1375 27.8496 45.111 28.0329 46.0296 28.3996C46.9482 28.748 47.6372 29.1697 48.0963 29.6648L46.6083 31.4525C45.855 30.8657 45.3224 30.4715 45.01 30.2698C44.2016 29.7198 43.3384 29.4448 42.4198 29.4448C40.5277 29.4448 38.7731 30.3615 37.1566 32.195C35.5401 34.0102 34.7316 35.9905 34.7316 38.1357C34.7316 39.309 35.0623 40.2352 35.7237 40.9135C36.385 41.5918 37.2485 41.9311 38.3139 41.9311C39.3979 41.9311 40.3713 41.6743 41.2349 41.161C42.3002 38.3557 43.2923 36.9531 44.2109 36.9531C44.7438 36.9531 45.01 37.2099 45.01 37.7231C45.01 38.2364 44.8078 38.8325 44.4038 39.5108C44.018 40.1709 43.5127 40.7667 42.8882 41.2985C42.1349 43.3155 41.694 44.5257 41.5655 44.9289C42.8514 45.0757 43.8895 45.3047 44.6794 45.6165ZM33.0232 52.0797C34.2725 52.0797 35.5032 51.5021 36.7157 50.347C37.9464 49.1919 38.8743 47.7435 39.4988 46.0015C37.0188 46.0015 34.9152 46.4141 33.1885 47.2392C31.48 48.0825 30.6258 49.1001 30.6258 50.292C30.6258 50.8421 30.8371 51.2728 31.2596 51.5846C31.7005 51.9147 32.2884 52.0797 33.0232 52.0797ZM54.812 33.7352C53.7831 33.7352 53.2689 33.3227 53.2689 32.4976C53.2689 32.0392 53.3973 31.6542 53.6546 31.3425C53.9119 31.0307 54.2426 30.8749 54.6467 30.8749C55.0507 30.8749 55.3814 30.9941 55.6387 31.2324C55.896 31.4708 56.0245 31.7825 56.0245 32.1675C56.0245 32.5526 55.9142 32.9101 55.6938 33.2402C55.4733 33.5702 55.1795 33.7352 54.812 33.7352ZM54.4538 41.8486L55.0049 42.3161C54.564 43.1594 53.976 43.8838 53.2413 44.4889C52.5249 45.0757 51.8728 45.369 51.2848 45.369C50.256 45.369 49.7417 44.6539 49.7417 43.2237C49.7417 41.4453 50.4764 39.1258 51.9462 36.2655C52.2768 35.6422 52.4697 35.2754 52.5249 35.1654L53.7098 35.8804C53.324 36.5773 52.8462 37.6864 52.2768 39.2083C51.7257 40.7302 51.4502 41.7111 51.4502 42.1511C51.4502 42.5729 51.5421 42.8755 51.7257 43.0587C51.9093 43.242 52.1298 43.3337 52.3871 43.3337C52.8831 43.3337 53.572 42.8387 54.4538 41.8486ZM64.2796 35.6604C64.7388 35.6604 65.1156 35.8162 65.4094 36.128C65.7033 36.4398 65.8503 36.843 65.8503 37.3381C65.8503 38.3282 65.281 39.3733 64.1419 40.4734L63.4805 39.9509C63.7378 39.3826 63.8663 38.9701 63.8663 38.7132C63.8663 38.2182 63.5907 37.9707 63.0396 37.9707C62.4885 37.9707 61.9649 38.3189 61.4689 39.0158C60.9729 39.7126 60.385 40.7942 59.7053 42.2611C59.044 43.7095 58.5387 44.7364 58.1898 45.3415L56.6191 44.6539C57.6294 42.3619 58.208 41.0142 58.3551 40.611C58.8511 39.1808 59.0991 37.3656 59.0991 35.1654L60.6423 34.7528C60.5871 35.9447 60.5045 36.8706 60.3942 37.5306C60.284 38.1725 60.0178 39.2265 59.5951 40.6935C61.4507 37.3381 63.0121 35.6604 64.2796 35.6604ZM70.658 42.7562L71.2367 43.2237C70.6122 44.1956 70.0701 44.9014 69.6109 45.3415C69.17 45.7633 68.674 45.974 68.1229 45.974C67.5718 45.974 67.1216 45.754 66.7726 45.314C66.4237 44.8739 66.2491 44.3239 66.2491 43.6638C66.2491 42.3804 67.094 39.6208 68.7842 35.3854C70.4744 31.1316 72.2105 27.3912 73.9923 24.1642L75.2048 24.8243C73.4043 28.308 71.7785 31.7733 70.3274 35.2204C68.8762 38.649 68.1504 41.1153 68.1504 42.6187C68.1504 43.4805 68.4718 43.9113 69.1149 43.9113C69.6292 43.9113 70.1438 43.5263 70.658 42.7562ZM82.8511 34.6428L82.6031 35.7154C82.2906 35.6786 81.8866 35.6604 81.3906 35.6604C79.5536 35.6604 78.635 36.2655 78.635 37.4756C78.635 37.7324 79.0025 38.4839 79.7372 39.7309C80.4905 40.9778 80.867 41.8118 80.867 42.2336C80.867 43.2237 80.5271 44.0031 79.8475 44.5714C79.1861 45.1214 78.295 45.3965 77.1745 45.3965C75.6314 45.3965 74.3914 44.5439 73.4545 42.8387L74.5016 42.0961C74.7589 42.2979 75.0345 42.5454 75.3283 42.8387C75.6221 43.1137 75.8425 43.3062 75.9896 43.4163C76.3385 43.7281 76.7243 43.8838 77.147 43.8838C77.5696 43.8838 77.9368 43.737 78.2492 43.4438C78.5616 43.1319 78.7177 42.7562 78.7177 42.3161C78.7177 41.8579 78.3136 41.0142 77.5052 39.7859C76.7154 38.5575 76.3203 37.6956 76.3203 37.2006C76.3203 36.3023 76.6968 35.6147 77.4501 35.1379C78.2217 34.661 79.223 34.4228 80.4537 34.4228C81.703 34.4228 82.5021 34.496 82.8511 34.6428Z" fill="white"/>
</svg>
