<svg width="250" height="169" viewBox="0 0 250 169" fill="none" xmlns="http://www.w3.org/2000/svg">
<path d="M4.86328 42.7666C5.99805 52.1149 7.95687 58.8154 10.7397 62.8682L11.5098 63.7598C11.9421 64.3812 13.0228 65.2998 14.752 66.5156C17.832 68.6771 21.4795 69.7578 25.6943 69.7578C25.7484 69.7578 25.8024 69.7578 25.8564 69.7578C27.5316 69.7578 28.4772 69.7308 28.6934 69.6768C32.6921 68.8662 35.7721 66.7588 37.9336 63.3545C39.3656 60.8688 40.0815 58.2616 40.0815 55.5327V54.479C39.8384 51.1017 37.5283 48.4674 33.1514 46.5762L19.3721 40.2539C12.5094 37.0658 9.05111 32.3916 8.99707 26.2314V25.4209C9.10514 21.2331 10.6182 17.7477 13.5361 14.9648C16.4811 12.1549 20.1826 10.75 24.6406 10.75C24.7217 10.75 24.8027 10.75 24.8838 10.75C29.3688 10.75 32.8947 12.4386 35.4614 15.8159L35.7856 15.8564C37.812 15.6403 39.2575 13.9382 40.1221 10.75V34.1748C38.501 27.5013 36.8258 23.0163 35.0967 20.7197L33.7188 19.0176C33.3135 18.6393 32.611 18.0449 31.6113 17.2344C29.5309 15.5322 27.3965 14.6676 25.208 14.6406C25.208 14.6406 25.1675 14.6406 25.0864 14.6406C22.4657 14.6406 20.3177 15.4242 18.6426 16.9912C16.9134 18.6123 16.0488 20.8548 16.0488 23.7188C16.0488 23.7998 16.0488 23.8809 16.0488 23.9619C16.0488 27.7174 18.5615 30.7165 23.5869 32.959L38.3389 39.5244C44.418 42.2262 47.6602 47.13 48.0654 54.2358V55.8164C47.2549 61.112 45.0124 65.4079 41.3379 68.7041C37.7445 72.2435 32.9893 74.0132 27.0723 74.0132H26.748C24.8027 74.0132 21.9928 73.4593 18.3184 72.3516L10.7397 69.1094L10.2129 68.9067C7.51107 69.1229 5.72786 70.8385 4.86328 74.0537V42.7666ZM65.4111 73C68.7614 72.3516 71.3011 70.4603 73.0303 67.3262L73.1113 67.002V15.897H61.48L60.9126 15.9375C58.9943 16.1266 55.2523 19.0851 49.6865 24.813L57.2246 11.7632H97.0225L104.561 24.813C98.9948 19.0851 95.2528 16.1266 93.3345 15.9375L92.7671 15.897H81.1357V67.002L81.2168 67.3667C82.6758 70.3657 85.2155 72.2435 88.8359 73H65.4111ZM103.75 73C107.1 72.3516 109.64 70.4603 111.369 67.3262L111.45 67.002V17.7612L111.369 17.437C109.64 14.3029 107.1 12.4116 103.75 11.7632H142.089L149.627 24.813C144.061 19.0851 140.319 16.1266 138.401 15.9375L137.833 15.897H119.475V46.9814H132.16L132.727 46.9409C134.645 46.7518 138.387 43.7933 143.953 38.0654L132.241 58.3696C132.484 57.478 132.605 56.654 132.605 55.8975C132.605 53.8981 131.795 52.3446 130.174 51.2368L129.89 51.1152H119.475V68.8662H143.102L143.669 68.8257C145.588 68.6366 149.33 65.6781 154.896 59.9502L147.357 73H103.75ZM154.085 73C157.705 72.2435 160.245 70.3657 161.704 67.3667L161.785 67.002L170.296 10.1421L192.14 59.3423L213.052 10.1421L221.522 67.002L221.604 67.3667C223.062 70.3657 225.602 72.2435 229.223 73H205.798C210.958 71.0817 213.539 69.258 213.539 67.5288C213.539 67.4748 213.539 67.4072 213.539 67.3262L213.498 67.002L208.189 32.0269L189.749 74.6211L171.106 31.6621L166.324 67.002L166.284 67.4883C166.338 69.1094 168.918 70.9466 174.024 73H154.085Z" fill="white"/>
<path d="M134.575 137.664L133.33 140.486C127.907 139.545 124.781 139.047 123.951 138.992C121.24 146.351 117.366 152.161 112.331 156.422C107.296 160.683 101.652 162.813 95.399 162.813C92.0237 162.813 89.2017 161.9 86.933 160.074C84.6643 158.248 83.53 155.979 83.53 153.268C83.53 148.509 86.7947 144.332 93.324 140.735C99.9087 137.138 107.877 135.34 117.228 135.34C118.501 135.34 119.469 135.368 120.133 135.423C121.129 133.32 121.931 131.079 122.54 128.7C118.999 131.079 115.208 132.269 111.169 132.269C107.185 132.269 103.837 130.858 101.126 128.036C98.47 125.159 97.142 121.396 97.142 116.748C97.142 112.045 98.6913 107.12 101.79 101.974C104.944 96.7727 109.066 92.4843 114.157 89.109C119.303 85.7337 124.532 84.046 129.844 84.046C132.943 84.046 135.875 84.5993 138.642 85.706C141.409 86.7573 143.484 88.03 144.867 89.524L140.385 94.919C138.116 93.1483 136.512 91.9587 135.571 91.35C133.136 89.69 130.536 88.86 127.769 88.86C122.07 88.86 116.785 91.6267 111.916 97.16C107.047 102.638 104.612 108.614 104.612 115.088C104.612 118.629 105.608 121.424 107.6 123.471C109.592 125.518 112.193 126.542 115.402 126.542C118.667 126.542 121.599 125.767 124.2 124.218C127.409 115.752 130.397 111.519 133.164 111.519C134.769 111.519 135.571 112.294 135.571 113.843C135.571 115.392 134.962 117.191 133.745 119.238C132.583 121.23 131.061 123.028 129.18 124.633C126.911 130.72 125.583 134.372 125.196 135.589C129.069 136.032 132.196 136.723 134.575 137.664ZM99.466 157.169C103.229 157.169 106.936 155.426 110.588 151.94C114.295 148.454 117.09 144.083 118.971 138.826C111.501 138.826 105.165 140.071 99.964 142.561C94.818 145.106 92.245 148.177 92.245 151.774C92.245 153.434 92.8813 154.734 94.154 155.675C95.482 156.671 97.2527 157.169 99.466 157.169ZM165.095 101.808C161.996 101.808 160.447 100.563 160.447 98.073C160.447 96.6897 160.834 95.5277 161.609 94.587C162.384 93.6463 163.38 93.176 164.597 93.176C165.814 93.176 166.81 93.5357 167.585 94.255C168.36 94.9743 168.747 95.915 168.747 97.077C168.747 98.239 168.415 99.318 167.751 100.314C167.087 101.31 166.202 101.808 165.095 101.808ZM164.016 126.293L165.676 127.704C164.348 130.249 162.577 132.435 160.364 134.261C158.206 136.032 156.242 136.917 154.471 136.917C151.372 136.917 149.823 134.759 149.823 130.443C149.823 125.076 152.036 118.076 156.463 109.444C157.459 107.563 158.04 106.456 158.206 106.124L161.775 108.282C160.613 110.385 159.174 113.732 157.459 118.325C155.799 122.918 154.969 125.878 154.969 127.206C154.969 128.479 155.246 129.392 155.799 129.945C156.352 130.498 157.016 130.775 157.791 130.775C159.285 130.775 161.36 129.281 164.016 126.293ZM193.612 107.618C194.995 107.618 196.13 108.088 197.015 109.029C197.9 109.97 198.343 111.187 198.343 112.681C198.343 115.669 196.628 118.823 193.197 122.143L191.205 120.566C191.98 118.851 192.367 117.606 192.367 116.831C192.367 115.337 191.537 114.59 189.877 114.59C188.217 114.59 186.64 115.641 185.146 117.744C183.652 119.847 181.881 123.111 179.834 127.538C177.842 131.909 176.32 135.008 175.269 136.834L170.538 134.759C173.581 127.842 175.324 123.775 175.767 122.558C177.261 118.242 178.008 112.764 178.008 106.124L182.656 104.879C182.49 108.476 182.241 111.27 181.909 113.262C181.577 115.199 180.775 118.38 179.502 122.807C185.091 112.681 189.794 107.618 193.612 107.618ZM212.824 129.032L214.567 130.443C212.686 133.376 211.053 135.506 209.67 136.834C208.342 138.107 206.848 138.743 205.188 138.743C203.528 138.743 202.172 138.079 201.121 136.751C200.07 135.423 199.544 133.763 199.544 131.771C199.544 127.898 202.089 119.57 207.18 106.788C212.271 93.9507 217.5 82.6627 222.867 72.924L226.519 74.916C221.096 85.4293 216.199 95.8873 211.828 106.29C207.457 116.637 205.271 124.08 205.271 128.617C205.271 131.218 206.239 132.518 208.176 132.518C209.725 132.518 211.275 131.356 212.824 129.032ZM249.55 104.547L248.803 107.784C247.862 107.673 246.645 107.618 245.151 107.618C239.618 107.618 236.851 109.444 236.851 113.096C236.851 113.871 237.958 116.139 240.171 119.902C242.44 123.665 243.574 126.182 243.574 127.455C243.574 130.443 242.55 132.795 240.503 134.51C238.511 136.17 235.827 137 232.452 137C227.804 137 224.069 134.427 221.247 129.281L224.401 127.04C225.176 127.649 226.006 128.396 226.891 129.281C227.776 130.111 228.44 130.692 228.883 131.024C229.934 131.965 231.096 132.435 232.369 132.435C233.642 132.435 234.748 131.992 235.689 131.107C236.63 130.166 237.1 129.032 237.1 127.704C237.1 126.321 235.883 123.775 233.448 120.068C231.069 116.361 229.879 113.76 229.879 112.266C229.879 109.555 231.013 107.48 233.282 106.041C235.606 104.602 238.622 103.883 242.329 103.883C246.092 103.883 248.499 104.104 249.55 104.547Z" fill="white"/>
</svg>
