<svg width="180" height="180" viewBox="0 0 180 180" fill="none" xmlns="http://www.w3.org/2000/svg">
<g clip-path="url(#clip0_54_172)">
<path d="M179.77 0.230003V179.77H0.22998V0.230003H179.77Z" fill="white" stroke="#621EA6"/>
<path d="M13.6526 40.04V38.85H20.1976V40C20.2501 43.355 20.8351 44.9275 23.0001 44.9275C25.2101 44.9275 25.6776 43.2275 25.6776 39.955C25.6776 36.5125 24.8701 34.5575 21.8526 34.4725C21.4718 34.4282 21.0881 34.414 20.7051 34.43V29.6275H21.7251C24.7851 29.6275 25.6776 28.055 25.6776 24.5275C25.6776 21.7775 25.0401 20.1925 22.8726 20.1925C20.7051 20.1925 20.2501 22.0625 20.1976 24.75V26.28H13.6526V24.4C13.6526 18.365 17.0526 14.965 22.8751 14.965C28.7401 14.965 32.1401 18.195 32.1401 24.1875C32.1401 28.225 30.2701 31.03 27.8051 31.71C30.3051 32.645 32.1401 34.94 32.1401 39.8275C32.1401 46.0775 29.6401 50.4525 22.9176 50.4525C16.0326 50.4525 13.6526 46.2875 13.6526 40.04ZM46.9151 24.735L48.9801 24.3275C49.0451 25.8875 49.4176 26.895 50.4801 26.895C51.2301 26.895 51.5676 26.375 51.5676 25.66C51.5676 24.5225 50.9826 23.89 50.1226 23.1425L48.4651 21.695C47.5226 20.8825 46.9376 19.9725 46.9376 18.51C46.9376 16.43 48.2376 15.26 50.3326 15.26C52.8026 15.26 53.5026 16.9175 53.6326 18.835L51.5676 19.1925C51.5201 17.9575 51.3401 17.0325 50.2851 17.0325C49.5701 17.0325 49.1801 17.5675 49.1801 18.2675C49.1801 19.16 49.5526 19.6475 50.2526 20.25L51.8926 21.695C52.9651 22.6225 53.8601 23.775 53.8601 25.515C53.8601 27.415 52.5276 28.7475 50.5601 28.7475C48.1501 28.75 47.0126 27.35 46.9151 24.735ZM57.0876 15.4075H59.6551L62.2876 28.57H60.0626L59.5426 25.53H57.2501L56.7151 28.57H54.4651L57.0876 15.4075ZM59.2826 24L58.3876 18.475L57.5001 24H59.2826ZM63.3601 24.3125V15.4075H65.7001V24.5875C65.7001 25.8375 65.8476 26.96 67.0651 26.96C68.2826 26.96 68.4476 25.84 68.4476 24.5875V15.4075H70.7701V24.3125C70.7701 27.0625 70.0076 28.7475 67.0651 28.7475C64.1226 28.7475 63.3601 27.075 63.3601 24.3125ZM67.3901 11.25H69.6401L67.7001 14.5H66.4151L67.3901 11.25ZM72.5751 15.4075H75.6776C78.8801 15.4075 79.8551 16.69 79.8551 19.5025V24.295C79.8551 27.1875 78.8551 28.57 75.7751 28.57H72.5751V15.4075ZM75.7101 26.895C77.3526 26.895 77.4176 26.0175 77.4176 24.3775V19.34C77.4176 17.7625 77.2551 17.1125 75.6676 17.1125H74.9526V26.895H75.7101ZM81.5451 15.4075H87.0701V17.0975H83.9326V20.8825H86.4026V22.5575H83.9326V26.9275H87.1026V28.57H81.5451V15.4075ZM92.2851 15.4075H97.8101V17.0975H94.6751V20.8825H97.1451V22.5575H94.6751V26.9275H97.8426V28.57H92.2851V15.4075ZM47.2501 36.9075H50.5001C52.8076 36.9075 54.3526 37.6875 54.3526 40.2875C54.3526 41.895 53.6851 42.7875 52.4501 42.985C53.9951 43.2775 54.7251 44.3825 54.7251 46.235C54.7251 48.7525 53.4901 50.07 51.0526 50.07H47.2501V36.9075ZM50.4676 42.285C51.8976 42.285 52.2726 41.6525 52.2726 40.32C52.2726 38.9225 51.5901 38.57 50.1276 38.57H49.6401V42.275L50.4676 42.285ZM50.5651 48.38C52.0276 48.38 52.4351 47.6975 52.4351 46.2175C52.4351 44.6575 51.9151 43.9425 50.4851 43.9425H49.6401V48.38H50.5651ZM56.2101 36.9075H61.7351V38.5975H58.6001V42.3825H61.0701V44.0575H58.6001V48.4275H61.7676V50.07H56.2101V36.9075ZM63.2801 36.9075H65.7651L67.6351 46.0225L69.5676 36.9075H72.0001L72.2501 50.07H70.4626L70.2676 40.92L68.4001 50.07H66.9526L65.0526 40.8875L64.8726 50.07H63.0701L63.2801 36.9075ZM74.0376 44H77.9526V45.5H74.0376V44ZM79.7901 36.9075H85.3151V38.5975H82.1776V42.3825H84.6476V44.0575H82.1776V48.4275H85.3476V50.07H79.7901V36.9075ZM86.3376 46.235L88.4026 45.8275C88.4676 47.3875 88.8401 48.395 89.9026 48.395C90.6651 48.395 90.9901 47.875 90.9901 47.16C90.9901 46.0225 90.4051 45.39 89.5451 44.6425L87.8876 43.195C86.9451 42.3825 86.3601 41.4725 86.3601 40.01C86.3601 37.93 87.6601 36.76 89.7551 36.76C92.2251 36.76 92.9251 38.4175 93.0551 40.335L90.9901 40.6925C90.9426 39.4575 90.7626 38.5325 89.7076 38.5325C88.9926 38.5325 88.6026 39.0675 88.6026 39.7675C88.6026 40.66 88.9751 41.1475 89.6751 41.75L91.3151 43.195C92.3876 44.1225 93.2826 45.275 93.2826 47.015C93.2826 48.915 91.9501 50.2475 89.9826 50.2475C87.5726 50.25 86.4351 48.85 86.3376 46.235ZM95.9251 38.6775H93.8301V36.9075H100.378V38.6775H98.3301V50.07H95.9251V38.6775ZM103.14 36.9075H105.708L108.34 50.07H106.115L105.595 47.03H103.303L102.768 50.07H100.518L103.14 36.9075ZM105.335 45.5L104.44 39.975L103.548 45.5H105.335ZM109.575 36.9075H112.75C115.383 36.9075 116.878 37.7525 116.878 40.4075C116.878 41.985 116.488 43.09 115.253 43.5925L117.088 50.0775H114.683L113.108 44.0475H111.97V50.0775H109.575V36.9075ZM112.728 42.545C114.11 42.545 114.613 41.945 114.613 40.53C114.613 39.1975 114.24 38.5475 112.863 38.5475H111.97V42.5475L112.728 42.545ZM150.918 112.665C150.918 107.562 147.643 103.415 142.683 103.415C140.203 103.415 137.21 106.13 135.588 107.8C133.963 106.128 131.168 103.41 128.688 103.41C123.728 103.41 120.253 107.548 120.253 112.66C120.243 115.098 121.188 117.444 122.885 119.195L135.598 131.932L148.293 119.21C149.989 117.455 150.931 115.106 150.918 112.665Z" fill="#621EA6"/>
<path d="M96.7876 152.727H96.6601C96.1903 152.698 95.7441 152.511 95.3938 152.197C95.0435 151.882 94.8097 151.459 94.7301 150.995L88.2726 113.382L78.5001 131.52C78.2913 131.906 77.9661 132.217 77.5707 132.407C77.1753 132.598 76.7299 132.659 76.2977 132.582C75.8655 132.505 75.4686 132.294 75.1634 131.979C74.8582 131.663 74.6602 131.259 74.5976 130.825L70.4351 101.8L62.8351 118.865C62.6726 119.236 62.4058 119.552 62.0671 119.774C61.7284 119.995 61.3325 120.114 60.9276 120.115H31.3976C31.1234 120.115 30.852 120.061 30.5987 119.956C30.3454 119.851 30.1153 119.697 29.9215 119.504C29.7276 119.31 29.5739 119.08 29.469 118.826C29.3641 118.573 29.3101 118.302 29.3101 118.027C29.3101 117.753 29.3641 117.482 29.469 117.229C29.5739 116.975 29.7276 116.745 29.9215 116.551C30.1153 116.358 30.3454 116.204 30.5987 116.099C30.852 115.994 31.1234 115.94 31.3976 115.94H59.5726L69.5726 93.4925C69.7571 93.0792 70.071 92.7371 70.4669 92.5177C70.8628 92.2983 71.3192 92.2136 71.7675 92.2762C72.2158 92.3388 72.6315 92.5454 72.9522 92.8649C73.2728 93.1844 73.4809 93.5995 73.5451 94.0475L77.8276 123.975L87.4751 106.09C87.6812 105.708 88.0015 105.399 88.3913 105.207C88.7811 105.016 89.2211 104.95 89.6498 105.02C90.0785 105.091 90.4747 105.293 90.783 105.599C91.0914 105.905 91.2966 106.299 91.3701 106.727L97.3501 141.56L119.145 69.16C119.266 68.757 119.506 68.4 119.834 68.1358C120.161 67.8716 120.561 67.7126 120.981 67.6796C121.4 67.6466 121.82 67.7412 122.185 67.951C122.55 68.1607 122.842 68.4758 123.025 68.855L134.5 92.6175C134.619 92.8645 134.688 93.1326 134.704 93.4064C134.719 93.6802 134.68 93.9543 134.59 94.2132C134.499 94.472 134.359 94.7105 134.176 94.915C133.993 95.1195 133.772 95.286 133.525 95.405C133.278 95.524 133.01 95.5932 132.736 95.6086C132.462 95.624 132.188 95.5853 131.929 95.4948C131.671 95.4043 131.432 95.2636 131.228 95.0809C131.023 94.8982 130.857 94.677 130.738 94.43L121.593 75.5L98.7876 151.25C98.6564 151.678 98.3912 152.053 98.0312 152.319C97.6711 152.585 97.2352 152.728 96.7876 152.727Z" fill="#621EA6"/>
</g>
<defs>
<clipPath id="clip0_54_172">
<rect width="180" height="180" fill="white"/>
</clipPath>
</defs>
</svg>
