<svg width="180" height="180" viewBox="0 0 180 180" fill="none" xmlns="http://www.w3.org/2000/svg">
<g clip-path="url(#clip0_54_166)">
<path d="M-0.0275879 -0.269997H180.027V180.27H-0.0275879V-0.269997Z" fill="#621EA6"/>
<path d="M12.7501 22.2325C11.7301 22.785 8.79759 23.5925 7.77759 24.1025V19.215C9.13759 18.6625 12.9201 16.835 14.1951 15.4325H19.3301V49.8575H12.7501V22.2325ZM36.6976 15.4075H42.2251V17.0975H39.0876V20.8825H41.5576V22.5575H39.0876V26.9275H42.2501V28.57H36.6976V15.4075ZM43.3276 15.4075H46.5001C49.1326 15.4075 50.6276 16.2525 50.6276 18.9075C50.6276 20.485 50.2376 21.59 49.0026 22.0925L50.8376 28.5775H48.4326L46.8576 22.5475H45.7201V28.5775H43.3301L43.3276 15.4075ZM46.4801 21.045C47.8626 21.045 48.3651 20.445 48.3651 19.03C48.3651 17.6975 47.9926 17.0475 46.6151 17.0475H45.7226V21.0475L46.4801 21.045ZM52.1201 15.4075H55.2876C57.9201 15.4075 59.4176 16.2525 59.4176 18.9075C59.4176 20.485 59.0251 21.59 57.7901 22.0925L59.6276 28.5775H57.2226L55.6451 22.5475H54.5001V28.5775H52.1126L52.1201 15.4075ZM55.2726 21.045C56.6526 21.045 57.1576 20.445 57.1576 19.03C57.1576 17.6975 56.7826 17.0475 55.4076 17.0475H54.5001V21.0475L55.2726 21.045ZM62.8776 15.4075H65.4451L68.0776 28.57H65.8501L65.3301 25.53H63.0401L62.5001 28.57H60.2501L62.8776 15.4075ZM65.0701 24L64.1776 18.475L63.2826 24H65.0701ZM69.0676 15.4075H72.1726C75.3726 15.4075 76.3476 16.69 76.3476 19.5025V24.295C76.3476 27.1875 75.3476 28.57 72.2701 28.57H69.0676V15.4075ZM72.2051 26.895C73.8451 26.895 73.9101 26.0175 73.9101 24.3775V19.34C73.9101 17.7625 73.7476 17.1125 72.1726 17.1125H71.4576V26.895H72.2051ZM77.8601 15.4075H80.2326V28.57H77.8601V15.4075ZM81.7276 24.36V19.665C81.7276 16.9675 82.5876 15.26 85.4776 15.26C88.1751 15.26 89.0376 16.76 89.0376 19.0475V20.1525H86.7301V19.015C86.7301 17.91 86.7126 17.015 85.4951 17.015C84.2776 17.015 84.1451 17.9575 84.1451 19.16V24.865C84.1451 26.295 84.4376 26.9775 85.4951 26.9775C86.6801 26.9775 86.7301 26.05 86.7301 24.88V23.695H89.0376V24.75C89.0376 27.075 88.2576 28.75 85.4776 28.75C82.5876 28.75 81.7276 26.9275 81.7276 24.36ZM92.3551 15.4075H94.9226L97.5551 28.57H95.3276L94.8076 25.53H92.5176L91.9801 28.57H89.7301L92.3551 15.4075ZM94.5476 24L93.6551 18.475L92.7501 24H94.5476ZM103.25 20.1525V19.015C103.25 17.91 103.235 17.015 102.015 17.015C100.795 17.015 100.668 17.9575 100.668 19.16V24.865C100.668 26.295 100.96 26.9775 102.015 26.9775C103.203 26.9775 103.25 26.05 103.25 24.88V23.695H105.558V24.75C105.558 26.9775 104.843 28.6175 102.325 28.75V29.5625C103.528 29.5625 104.34 30.1 104.34 31.1075C104.34 32.26 103.315 32.7475 102.13 32.7475C101.734 32.7436 101.34 32.6839 100.96 32.57V31.545C101.244 31.6334 101.54 31.6773 101.838 31.675C102.405 31.675 102.838 31.5125 102.838 31.075C102.838 30.49 102.173 30.2775 101.408 30.1975V28.7175C99.0026 28.4675 98.2551 26.735 98.2551 24.3625V19.665C98.2501 16.9675 99.1151 15.25 102 15.25C104.698 15.25 105.558 16.75 105.558 19.0375V20.1425L103.25 20.1525ZM108.88 15.4075H111.448L114.08 28.57H111.855L111.335 25.53H109.043L108.5 28.57H106.25L108.88 15.4075ZM109.38 12.9075C108.955 12.9075 108.81 13.1575 108.81 13.575H107.673C107.673 12.405 107.998 11.5275 109.055 11.5275C109.85 11.5275 110.388 12.2775 111.085 12.2775C111.46 12.2775 111.605 12.05 111.605 11.6275H112.678C112.678 12.65 112.5 13.675 111.443 13.675C110.603 13.685 110.05 12.92 109.385 12.92L109.38 12.9075ZM111.075 24L110.18 18.475L109.288 24H111.075ZM114.73 24.4425V19.5C114.73 16.835 115.705 15.25 118.533 15.25C121.36 15.25 122.32 16.8275 122.32 19.5V24.4425C122.32 27.09 121.345 28.7475 118.533 28.7475C115.72 28.7475 114.73 27.1075 114.73 24.4425ZM119.883 25V18.95C119.883 17.845 119.703 17.015 118.533 17.015C117.363 17.015 117.168 17.845 117.168 18.95V25C117.168 26.09 117.345 26.9675 118.533 26.9675C119.72 26.9675 119.883 26.1 119.883 25ZM36.6976 36.9075H39.8026C43.0051 36.9075 43.9801 38.19 43.9801 41.0025V45.795C43.9801 48.6875 42.9801 50.07 39.9001 50.07H36.6976V36.9075ZM39.8351 48.4075C41.4776 48.4075 41.5426 47.53 41.5426 45.89V40.84C41.5426 39.2625 41.3801 38.6125 39.7926 38.6125H39.0776V48.395L39.8351 48.4075ZM47.2926 36.9075H49.8601L52.5001 50.07H50.2726L49.7501 47.03H47.4576L46.9226 50.07H44.6726L47.2926 36.9075ZM49.5001 45.5L48.6076 39.975L47.7001 45.5H49.5001ZM57.1076 36.9075H60.9751C63.3326 36.9075 64.3401 38.2725 64.3401 40.6575C64.3401 43.24 62.9426 44.2325 60.8126 44.2325H59.5001V50.0825H57.1101L57.1076 36.9075ZM60.4226 42.53C61.7401 42.53 62.0801 42.03 62.0801 40.6275C62.0801 39.225 61.9026 38.5975 60.4226 38.5975H59.5001V42.53H60.4226ZM65.1351 45.9425V41C65.1351 38.335 66.1101 36.75 68.9376 36.75C71.7651 36.75 72.7251 38.3275 72.7251 41V45.94C72.7251 48.5875 71.7501 50.245 68.9376 50.245C66.1251 50.245 65.1351 48.6075 65.1351 45.9425ZM70.2876 46.5V40.45C70.2876 39.345 70.1076 38.515 68.9376 38.515C67.7676 38.515 67.5726 39.345 67.5726 40.45V46.5C67.5726 47.59 67.7526 48.4675 68.9376 48.4675C70.1226 48.4675 70.2876 47.6 70.2876 46.5ZM74.1701 36.9075H77.4201C79.7276 36.9075 81.2726 37.6875 81.2726 40.2875C81.2726 41.895 80.6051 42.7875 79.3701 42.985C80.9151 43.2775 81.6451 44.3825 81.6451 46.235C81.6451 48.7525 80.4101 50.07 77.9726 50.07H74.1701V36.9075ZM77.3876 42.285C78.8176 42.285 79.1926 41.6525 79.1926 40.32C79.1926 38.9225 78.5101 38.57 77.0476 38.57H76.5601V42.275L77.3876 42.285ZM77.4851 48.38C78.9476 48.38 79.3551 47.6975 79.3551 46.2175C79.3551 44.6575 78.8351 43.9425 77.4051 43.9425H76.5601V48.38H77.4851ZM82.8976 36.9075H86.0651C88.6976 36.9075 90.1926 37.7525 90.1926 40.4075C90.1926 41.985 89.8026 43.09 88.5676 43.5925L90.4051 50.0775H88.0001L86.4226 44.0475H85.2851V50.0775H82.8976V36.9075ZM86.0501 42.545C87.4301 42.545 87.9351 41.945 87.9351 40.53C87.9351 39.1975 87.5601 38.5475 86.1851 38.5475H85.2901V42.5475L86.0501 42.545ZM91.6876 36.9075H97.2126V38.5975H94.0776V42.3825H96.5476V44.0575H94.0776V48.4275H97.2501V50.07H91.6876V36.9075ZM97.8776 48.525L101.405 38.565H98.0576V36.9075H103.828V38.1425L100.155 48.4275H103.843V50.07H97.8776V48.525ZM106.865 36.9075H109.433L112.065 50.07H109.84L109.32 47.03H107.028L106.5 50.07H104.25L106.865 36.9075ZM109.06 45.5L108.165 39.975L107.27 45.5H109.06ZM139 85.845C139 84.8524 139.294 83.882 139.846 83.0566C140.397 82.2311 141.181 81.5877 142.098 81.2076C143.015 80.8275 144.024 80.7278 144.998 80.9211C145.971 81.1144 146.866 81.592 147.568 82.2936C148.27 82.9951 148.749 83.8891 148.943 84.8626C149.137 85.836 149.039 86.8452 148.659 87.7626C148.28 88.68 147.638 89.4643 146.813 90.0165C145.988 90.5688 145.018 90.864 144.025 90.865C143.366 90.8653 142.712 90.7357 142.103 90.4836C141.493 90.2315 140.94 89.8619 140.473 89.3957C140.006 88.9296 139.636 88.3761 139.383 87.7668C139.131 87.1576 139 86.5046 139 85.845ZM149.878 92.8025C151.54 92.9553 153.085 93.724 154.209 94.9577C155.334 96.1913 155.956 97.8008 155.955 99.47V113.39C155.937 113.894 155.724 114.372 155.361 114.722C154.998 115.072 154.513 115.268 154.009 115.268C153.504 115.268 153.02 115.072 152.657 114.722C152.294 114.372 152.081 113.894 152.063 113.39V101.435C152.063 100.987 151.933 100.38 151.113 100.38C150.548 100.38 150.428 100.98 150.408 101.363V137.193C150.386 137.92 150.081 138.611 149.559 139.118C149.036 139.625 148.337 139.909 147.609 139.909C146.881 139.909 146.181 139.625 145.659 139.118C145.136 138.611 144.832 137.92 144.81 137.193V116.545C144.82 116.437 144.807 116.328 144.771 116.226C144.736 116.124 144.678 116.03 144.603 115.952C144.527 115.874 144.436 115.814 144.335 115.775C144.234 115.735 144.126 115.718 144.018 115.725C143.909 115.719 143.8 115.737 143.699 115.776C143.597 115.816 143.505 115.876 143.429 115.954C143.353 116.031 143.293 116.124 143.255 116.226C143.217 116.328 143.201 116.436 143.208 116.545V137.193C143.208 137.934 142.913 138.645 142.389 139.169C141.865 139.693 141.154 139.988 140.413 139.988C139.671 139.988 138.96 139.693 138.436 139.169C137.912 138.645 137.618 137.934 137.618 137.193V101.363C137.6 100.98 137.478 100.38 136.915 100.38C136.09 100.38 135.965 100.987 135.965 101.435V113.39C135.947 113.894 135.734 114.372 135.371 114.722C135.008 115.072 134.523 115.268 134.019 115.268C133.514 115.268 133.03 115.072 132.667 114.722C132.304 114.372 132.091 113.894 132.073 113.39V99.47C132.072 97.7998 132.696 96.1896 133.822 94.9559C134.948 93.7222 136.494 92.9541 138.158 92.8025C138.279 92.7841 138.402 92.7741 138.525 92.7725H149.5C149.627 92.7741 149.754 92.7842 149.88 92.8025M109.135 88.4825C109.135 87.543 108.856 86.6247 108.335 85.8435C107.813 85.0624 107.071 84.4536 106.203 84.0941C105.335 83.7346 104.38 83.6405 103.458 83.8238C102.537 84.007 101.691 84.4594 101.026 85.1237C100.362 85.788 99.9096 86.6344 99.7264 87.5558C99.5431 88.4772 99.6371 89.4323 99.9967 90.3003C100.356 91.1682 100.965 91.91 101.746 92.432C102.527 92.9539 103.446 93.2325 104.385 93.2325C105.645 93.2325 106.853 92.7321 107.744 91.8413C108.635 90.9505 109.135 89.7423 109.135 88.4825ZM94.8026 99.25L90.8501 112.117C90.8501 112.117 90.1476 114.478 92.1476 115.065C94.1476 115.653 94.7501 113.352 94.7501 113.352L97.9376 102.602C97.9376 102.602 98.1101 101.775 98.7301 101.955C99.3501 102.135 99.1201 103.018 99.1201 103.018L93.5726 123.14H98.7301V137.555C98.7301 138.212 98.9911 138.842 99.4557 139.307C99.9204 139.771 100.551 140.033 101.208 140.033C101.865 140.033 102.495 139.771 102.959 139.307C103.424 138.842 103.685 138.212 103.685 137.555V123.153H105.093V137.568C105.093 138.225 105.354 138.855 105.818 139.319C106.283 139.784 106.913 140.045 107.57 140.045C108.227 140.045 108.857 139.784 109.322 139.319C109.787 138.855 110.048 138.225 110.048 137.568V123.153H115.205L109.663 103.03C109.663 103.03 109.428 102.145 110.048 101.968C110.668 101.79 110.843 102.615 110.843 102.615L114.03 113.365C114.03 113.365 114.635 115.667 116.623 115.078C118.61 114.488 117.92 112.13 117.92 112.13L113.96 99.25C113.96 99.25 112.55 95.53 109.42 95.53H99.3451C96.2176 95.53 94.8026 99.25 94.8026 99.25ZM80.6576 88.4825C80.6576 87.543 80.379 86.6247 79.8571 85.8435C79.3351 85.0624 78.5933 84.4536 77.7253 84.0941C76.8574 83.7346 75.9023 83.6405 74.9809 83.8238C74.0595 84.007 73.2131 84.4594 72.5488 85.1237C71.8845 85.788 71.4321 86.6344 71.2489 87.5558C71.0656 88.4772 71.1596 89.4323 71.5192 90.3003C71.8787 91.1682 72.4875 91.91 73.2686 92.432C74.0498 92.9539 74.9681 93.2325 75.9076 93.2325C77.1674 93.2325 78.3755 92.7321 79.2663 91.8413C80.1571 90.9505 80.6576 89.7423 80.6576 88.4825ZM66.3251 99.25L62.3751 112.115C62.3751 112.115 61.6676 114.475 63.6701 115.063C65.6726 115.65 66.2626 113.35 66.2626 113.35L69.4501 102.6C69.4501 102.6 69.6251 101.773 70.2451 101.953C70.8651 102.133 70.6326 103.015 70.6326 103.015L65.0876 123.138H70.2501V137.553C70.2501 138.21 70.5111 138.84 70.9757 139.304C71.4403 139.769 72.0705 140.03 72.7276 140.03C73.3847 140.03 74.0148 139.769 74.4794 139.304C74.9441 138.84 75.2051 138.21 75.2051 137.553V123.153H76.6126V137.568C76.6126 138.225 76.8736 138.855 77.3382 139.319C77.8028 139.784 78.433 140.045 79.0901 140.045C79.7472 140.045 80.3773 139.784 80.8419 139.319C81.3066 138.855 81.5676 138.225 81.5676 137.568V123.153H86.7251L81.1826 103.03C81.1826 103.03 80.9476 102.145 81.5676 101.968C82.1876 101.79 82.3626 102.615 82.3626 102.615L85.5451 113.365C85.5451 113.365 86.1526 115.667 88.1426 115.078C90.1326 114.488 89.4376 112.13 89.4376 112.13L85.4801 99.25C85.4801 99.25 84.0726 95.53 80.9426 95.53H70.8676C67.7501 95.5325 66.3251 99.25 66.3251 99.25ZM125.103 115.093C125.885 115.093 126.65 114.86 127.301 114.426C127.952 113.991 128.459 113.373 128.759 112.65C129.058 111.927 129.137 111.131 128.984 110.364C128.832 109.596 128.455 108.891 127.902 108.338C127.349 107.784 126.644 107.407 125.876 107.254C125.109 107.101 124.313 107.179 123.59 107.478C122.867 107.777 122.248 108.284 121.813 108.935C121.378 109.585 121.146 110.35 121.145 111.132C121.144 111.653 121.246 112.168 121.444 112.649C121.643 113.129 121.934 113.566 122.302 113.934C122.67 114.302 123.106 114.594 123.587 114.792C124.067 114.991 124.582 115.093 125.103 115.093ZM115.615 127.388C115.42 127.85 115.263 128.833 116.19 129.26C117.28 129.76 117.888 128.708 117.888 128.708L120.038 121.845C120.038 121.845 120.413 121.388 120.413 121.863V138.013C120.413 138.551 120.626 139.067 121.007 139.448C121.388 139.829 121.904 140.042 122.443 140.042C122.981 140.042 123.497 139.829 123.878 139.448C124.259 139.067 124.473 138.551 124.473 138.013V131.64C124.473 131.64 124.355 130.738 125.08 130.738C125.805 130.738 125.695 131.64 125.695 131.64V138.013C125.695 138.552 125.909 139.07 126.291 139.451C126.673 139.833 127.19 140.048 127.73 140.048C128.27 140.048 128.787 139.833 129.169 139.451C129.551 139.07 129.765 138.552 129.765 138.013V121.863C129.765 121.388 130.015 121.725 130.015 121.725L131.7 126.423C131.7 126.423 132.433 128.523 132.658 128.615C132.84 128.691 133.035 128.73 133.232 128.73C133.429 128.731 133.625 128.692 133.807 128.617C133.989 128.542 134.155 128.431 134.294 128.292C134.434 128.153 134.545 127.987 134.62 127.805C134.72 127.571 134.757 127.315 134.729 127.062C134.701 126.808 134.609 126.567 134.46 126.36V126.345C134.413 126.193 131.94 120.133 131.65 119.28C130.758 116.675 129.133 116.698 127.57 116.655C126.008 116.612 125.07 116.655 125.07 116.655C125.07 116.655 124.07 116.615 122.005 116.675C119.94 116.735 119.293 117.797 117.005 123.65C116.68 124.492 115.583 127.22 115.568 127.385L115.615 127.388ZM38.1951 85.845C38.1951 84.8524 37.9008 83.882 37.3494 83.0566C36.798 82.2311 36.0143 81.5877 35.0973 81.2076C34.1803 80.8275 33.1712 80.7278 32.1976 80.9211C31.2239 81.1144 30.3294 81.592 29.6272 82.2936C28.9249 82.9951 28.4464 83.8891 28.2522 84.8626C28.0579 85.836 28.1566 86.8452 28.5358 87.7626C28.915 88.68 29.5576 89.4643 30.3825 90.0165C31.2074 90.5688 32.1774 90.864 33.1701 90.865C33.8297 90.8653 34.4828 90.7357 35.0923 90.4836C35.7018 90.2315 36.2556 89.8619 36.7223 89.3957C37.1889 88.9296 37.5591 88.3761 37.8118 87.7668C38.0645 87.1576 38.1948 86.5046 38.1951 85.845ZM27.3076 92.8025C25.6453 92.9558 24.1004 93.7246 22.9756 94.9581C21.8508 96.1915 21.2274 97.8007 21.2276 99.47V113.39C21.2276 113.907 21.4328 114.402 21.798 114.767C22.1632 115.132 22.6586 115.337 23.1751 115.337C23.6916 115.337 24.187 115.132 24.5522 114.767C24.9174 114.402 25.1226 113.907 25.1226 113.39V101.435C25.1226 100.987 25.2526 100.38 26.0726 100.38C26.6401 100.38 26.7576 100.98 26.7801 101.363V137.193C26.7801 137.934 27.0746 138.645 27.5987 139.169C28.1229 139.693 28.8338 139.988 29.5751 139.988C30.3164 139.988 31.0273 139.693 31.5515 139.169C32.0756 138.645 32.3701 137.934 32.3701 137.193V116.545C32.3626 116.437 32.378 116.329 32.4152 116.227C32.4525 116.126 32.5108 116.033 32.5864 115.956C32.6619 115.878 32.753 115.818 32.8536 115.778C32.9542 115.738 33.062 115.72 33.1701 115.725C33.2787 115.719 33.3873 115.736 33.4887 115.776C33.59 115.815 33.6819 115.875 33.7581 115.953C33.8342 116.031 33.893 116.123 33.9304 116.226C33.9678 116.328 33.9831 116.437 33.9751 116.545V137.193C33.9639 137.567 34.0279 137.939 34.1634 138.288C34.2989 138.638 34.5031 138.956 34.7639 139.224C35.0246 139.493 35.3367 139.707 35.6815 139.853C36.0263 139.998 36.3969 140.074 36.7713 140.074C37.1458 140.074 37.5163 139.998 37.8612 139.853C38.206 139.707 38.5181 139.493 38.7788 139.224C39.0396 138.956 39.2438 138.638 39.3792 138.288C39.5147 137.939 39.5788 137.567 39.5676 137.193V101.363C39.5826 100.98 39.7101 100.38 40.2726 100.38C41.0976 100.38 41.2201 100.987 41.2201 101.435V113.39C41.2382 113.894 41.4511 114.372 41.8141 114.722C42.1772 115.072 42.6619 115.268 43.1663 115.268C43.6708 115.268 44.1555 115.072 44.5185 114.722C44.8816 114.372 45.0945 113.894 45.1126 113.39V99.47C45.1139 97.8 44.4905 96.1899 43.365 94.9561C42.2395 93.7223 40.6932 92.9541 39.0301 92.8025C38.9084 92.7841 38.7856 92.7741 38.6626 92.7725H27.6876C27.5596 92.7739 27.4318 92.784 27.3051 92.8025" fill="white"/>
<path d="M18.4725 140.115C18.4053 140.115 18.3384 140.108 18.2725 140.095C17.9937 140.042 17.7473 139.881 17.5874 139.647C17.4275 139.412 17.3673 139.124 17.42 138.845L21.88 115.212C21.9029 115.072 21.9537 114.937 22.0294 114.817C22.1051 114.696 22.2042 114.592 22.3208 114.51C22.4373 114.429 22.5691 114.371 22.7082 114.341C22.8474 114.311 22.9912 114.309 23.1311 114.335C23.271 114.362 23.4042 114.416 23.5229 114.494C23.6416 114.573 23.7434 114.675 23.8223 114.793C23.9011 114.912 23.9555 115.045 23.9822 115.185C24.0088 115.324 24.0072 115.468 23.9775 115.607L19.52 139.25C19.4725 139.493 19.3421 139.712 19.1511 139.87C18.9601 140.028 18.7202 140.114 18.4725 140.115ZM47.5 113.02C47.3345 112.756 47.0879 112.552 46.797 112.44C46.5062 112.328 46.1867 112.313 45.8866 112.397C45.5865 112.481 45.3218 112.661 45.1322 112.908C44.9426 113.156 44.8383 113.458 44.835 113.77C44.856 113.987 44.9038 114.2 44.9775 114.405L48.9775 121.625C49.1214 121.923 49.2063 122.247 49.2275 122.577V138.077C49.2275 138.594 49.4327 139.089 49.7979 139.455C50.1631 139.82 50.6585 140.025 51.175 140.025C51.6915 140.025 52.1868 139.82 52.5521 139.455C52.9173 139.089 53.1225 138.594 53.1225 138.077V131.972C53.1225 131.972 53.0125 131.107 53.7125 131.107C54.4125 131.107 54.3 131.972 54.3 131.972V138.09C54.3 138.608 54.5057 139.104 54.8719 139.471C55.238 139.837 55.7346 140.042 56.2525 140.042C56.7703 140.042 57.2669 139.837 57.6331 139.471C57.9993 139.104 58.205 138.608 58.205 138.09V122.59C58.2261 122.259 58.311 121.936 58.455 121.637L62.1425 114.97C62.1425 114.97 62.5925 114.012 62.5925 113.782C62.5912 113.401 62.4386 113.035 62.1682 112.766C61.8978 112.496 61.5317 112.345 61.15 112.345C60.9056 112.344 60.665 112.406 60.4514 112.524C60.2377 112.643 60.0582 112.814 59.93 113.022H59.9125C59.7975 113.122 57.95 116.412 57.3425 117.022C56.695 117.67 56.12 117.6 56.12 117.6H51.31C51.31 117.6 50.7275 117.67 50.085 117.022C49.4425 116.375 47.63 113.122 47.5125 113.022L47.5 113.02Z" fill="white"/>
<path d="M53.7052 115.092C54.4879 115.093 55.2532 114.861 55.9043 114.427C56.5553 113.992 57.063 113.375 57.363 112.652C57.663 111.929 57.7418 111.133 57.5896 110.365C57.4374 109.598 57.0609 108.892 56.5078 108.338C55.9547 107.785 55.2498 107.407 54.4822 107.254C53.7146 107.101 52.9188 107.179 52.1955 107.478C51.4722 107.777 50.8538 108.284 50.4185 108.934C49.9832 109.585 49.7507 110.35 49.7502 111.132C49.7495 111.653 49.8514 112.168 50.05 112.648C50.2486 113.129 50.5401 113.565 50.9077 113.933C51.2753 114.301 51.7118 114.593 52.1922 114.792C52.6727 114.991 53.1877 115.093 53.7077 115.092M53.7102 120.647L58.1852 123.91L60.3102 131.738H47.1077L49.2377 123.91L53.7102 120.647Z" fill="white"/>
</g>
<defs>
<clipPath id="clip0_54_166">
<rect width="180" height="180" fill="white"/>
</clipPath>
</defs>
</svg>
