<svg width="180" height="180" viewBox="0 0 180 180" fill="none" xmlns="http://www.w3.org/2000/svg">
<g clip-path="url(#clip0_54_182)">
<path d="M179.77 0.230003V179.77H0.22998V0.230003H179.77Z" fill="white" stroke="#621EA6"/>
<path d="M13.9075 39.87H20.2825C20.2825 43.6525 20.75 45.62 23.13 45.5225C25.63 45.4375 25.765 42.6325 25.765 38.1275C25.765 34.4725 25.3825 31.8775 22.8325 31.8775C21.3025 31.8775 20.3325 32.94 19.9 34.98H14.25L14.7175 15.43H30.525V21.085H20.07L19.73 28.6925C20.41 27.8425 22.1525 27.1625 24.065 27.035C29.3775 26.5675 31.97 30.785 31.97 37.83C31.97 45.14 30.5675 50.41 22.7475 50.41C15.48 50.41 13.9075 46.25 13.9075 39.87ZM47.305 15.4075H49.6775V28.57H47.305V15.4075ZM51.4175 24.23V19.81C51.4175 16.9825 52.2775 15.26 55.1675 15.26C57.865 15.26 58.81 16.6575 58.81 19.095V19.7775H56.5175V19.0275C56.5175 17.76 56.3875 17.0125 55.2 17.0125C53.9325 17.0125 53.835 18.0375 53.835 19.24V24.75C53.835 26.115 54.085 26.9775 55.265 26.9775C56.445 26.9775 56.7125 26.0675 56.7125 24.6375V23.4025H55.3V21.9025H58.8775V28.5825H57.315L57.1525 27.2975C56.9899 27.7493 56.6851 28.1361 56.2839 28.3999C55.8827 28.6636 55.4067 28.79 54.9275 28.76C52.3275 28.75 51.4175 27 51.4175 24.23ZM60.5325 24.3125V15.4075H62.8725V24.5875C62.8725 25.8375 63.02 26.96 64.2375 26.96C65.455 26.96 65.62 25.84 65.62 24.5875V15.4075H67.9425V24.3125C67.9425 27.0625 67.1925 28.7475 64.2375 28.7475C61.2825 28.7475 60.5325 27.075 60.5325 24.3125ZM71.6475 15.4075H74.215L76.8475 28.57H74.6225L74.1025 25.53H71.81L71.275 28.57H69.025L71.6475 15.4075ZM73.8425 24L72.9475 18.475L72.055 24H73.8425ZM78.0825 15.4075H80.4725V26.9275H83.6725V28.57H78.0825V15.4075ZM84.8425 15.4075H87.9475C91.1475 15.4075 92.1225 16.69 92.1225 19.5025V24.295C92.1225 27.1875 91.1225 28.57 88.045 28.57H84.8425V15.4075ZM87.98 26.895C89.62 26.895 89.685 26.0175 89.685 24.3775V19.34C89.685 17.7625 89.5225 17.1125 87.9475 17.1125H87.2325V26.895H87.98ZM95.6825 15.4075H98.25L100.882 28.57H98.655L98.135 25.53H95.845L95.3075 28.57H93.0575L95.6825 15.4075ZM97.875 24L96.9825 18.475L96.0875 24H97.875ZM102.115 15.4075H105.22C108.422 15.4075 109.397 16.69 109.397 19.5025V24.295C109.397 27.1875 108.397 28.57 105.317 28.57H102.115V15.4075ZM105.25 26.895C106.892 26.895 106.957 26.0175 106.957 24.3775V19.34C106.957 17.7625 106.795 17.1125 105.207 17.1125H104.5V26.895H105.25ZM111.085 15.4075H116.612V17.0975H113.475V20.8825H115.945V22.5575H113.475V26.9275H116.645V28.57H111.085V15.4075ZM47.25 36.9075H50.355C53.555 36.9075 54.5325 38.19 54.5325 41.0025V45.795C54.5325 48.6875 53.5325 50.07 50.4525 50.07H47.25V36.9075ZM50.3875 48.4075C52.0275 48.4075 52.095 47.53 52.095 45.89V40.84C52.095 39.2625 51.93 38.6125 50.345 38.6125H49.63V48.395L50.3875 48.4075ZM56.21 36.9075H61.735V38.5975H58.6V42.3825H61.07V44.0575H58.6V48.4275H61.7675V50.07H56.21V36.9075ZM66.75 45.73V41.31C66.75 38.4825 67.6125 36.76 70.5 36.76C73.1975 36.76 74.14 38.1575 74.14 40.595V41.2775H71.8475V40.5275C71.8475 39.26 71.7175 38.5125 70.5325 38.5125C69.265 38.5125 69.1675 39.5375 69.1675 40.74V46.24C69.1675 47.605 69.4175 48.4675 70.5975 48.4675C71.7775 48.4675 72.0425 47.5575 72.0425 46.1275V44.8925H70.625V43.38H74.2V50.06H72.64L72.4775 48.775C72.12 49.62 71.4775 50.2375 70.25 50.2375C67.65 50.25 66.75 48.5 66.75 45.73ZM75.955 36.9075H81.48V38.5975H78.3425V42.3825H80.8125V44.0575H78.3425V48.4275H81.5125V50.07H75.955V36.9075ZM77.75 32.8775H79.75L81.25 35.8775H79.61L78.765 33.9275L77.935 35.8775H76.31L77.75 32.8775ZM82.8275 36.9075H84.5L87.7 44.4075V36.9075H89.6825V50.07H88.09L84.875 42.205V50.07H82.8275V36.9075ZM91.6025 36.9075H97.1275V38.5975H94V42.3825H96.47V44.0575H94V48.4275H97.1675V50.07H91.6025V36.9075ZM98.4775 36.9075H101.645C104.277 36.9075 105.772 37.7525 105.772 40.4075C105.772 41.985 105.382 43.09 104.147 43.5925L105.985 50.0775H103.58L102 44.04H100.862V50.07H98.475L98.4775 36.9075ZM101.63 42.545C103.01 42.545 103.515 41.945 103.515 40.53C103.515 39.1975 103.14 38.5475 101.765 38.5475H100.87V42.5475L101.63 42.545ZM107.235 45.9425V41C107.235 38.335 108.21 36.75 111.037 36.75C113.865 36.75 114.825 38.3275 114.825 41V45.94C114.825 48.5875 113.85 50.245 111.037 50.245C108.225 50.245 107.235 48.6075 107.235 45.9425ZM112.387 46.5V40.45C112.387 39.345 112.207 38.515 111.037 38.515C109.867 38.515 109.672 39.345 109.672 40.45V46.5C109.672 47.59 109.852 48.4675 111.037 48.4675C112.222 48.4675 112.387 47.6 112.387 46.5ZM131.42 67.9425H108.88C108.804 67.9425 108.731 67.9724 108.678 68.0258C108.624 68.0792 108.593 68.1517 108.592 68.2275V75.7275C108.593 75.8035 108.624 75.8763 108.677 75.9301C108.731 75.9838 108.804 76.0143 108.88 76.015H117.855L107.89 85.975C103.536 82.5537 98.3076 80.4268 92.8019 79.8375C87.2962 79.2482 81.7358 80.2204 76.7567 82.6428C71.7775 85.0652 67.5807 88.8401 64.6461 93.5356C61.7116 98.2312 60.1578 103.658 60.1625 109.195C60.1625 124.195 71.3925 136.587 85.875 138.465V147.095H76.985C76.9471 147.094 76.9095 147.101 76.8744 147.115C76.8392 147.129 76.8072 147.15 76.7802 147.177C76.7532 147.203 76.7318 147.235 76.7171 147.27C76.7025 147.305 76.695 147.342 76.695 147.38V155.41C76.6946 155.448 76.7019 155.486 76.7164 155.521C76.7309 155.556 76.7524 155.587 76.7794 155.614C76.8065 155.641 76.8387 155.662 76.874 155.675C76.9093 155.689 76.947 155.696 76.985 155.695H85.875V164.195C85.8746 164.233 85.8818 164.27 85.8962 164.305C85.9105 164.34 85.9317 164.372 85.9584 164.399C85.9852 164.426 86.017 164.447 86.0521 164.461C86.0871 164.476 86.1246 164.483 86.1625 164.483H94.1875C94.2254 164.483 94.2631 164.476 94.2983 164.461C94.3334 164.447 94.3654 164.426 94.3924 164.399C94.4193 164.372 94.4407 164.341 94.4553 164.306C94.4699 164.271 94.4775 164.233 94.4775 164.195V155.695H103.367C103.405 155.695 103.442 155.688 103.477 155.674C103.512 155.66 103.543 155.639 103.57 155.612C103.596 155.586 103.617 155.554 103.631 155.519C103.646 155.485 103.653 155.448 103.652 155.41V147.38C103.652 147.304 103.622 147.232 103.569 147.178C103.516 147.125 103.443 147.095 103.367 147.095H94.4775V138.325C99.4102 137.517 104.057 135.468 107.981 132.372C111.905 129.276 114.978 125.233 116.911 120.623C118.844 116.014 119.575 110.989 119.034 106.02C118.493 101.05 116.698 96.3003 113.817 92.215L123.642 82.3875V90.7725C123.643 90.8103 123.651 90.8476 123.665 90.8823C123.68 90.9171 123.702 90.9486 123.728 90.9751C123.755 91.0015 123.787 91.0224 123.822 91.0366C123.857 91.0507 123.895 91.0578 123.932 91.0575H131.42C131.496 91.0582 131.57 91.0286 131.625 90.9752C131.68 90.9218 131.711 90.849 131.712 90.7725V68.2275C131.711 68.151 131.68 68.0782 131.625 68.0248C131.57 67.9714 131.496 67.9418 131.42 67.9425ZM89.6875 130.928C85.3891 130.928 81.1871 129.654 77.6129 127.266C74.0386 124.878 71.2527 121.484 69.6075 117.513C67.9622 113.542 67.5315 109.173 68.3698 104.957C69.208 100.741 71.2776 96.8683 74.3169 93.8287C77.3561 90.7891 81.2285 88.719 85.4443 87.8803C89.66 87.0415 94.0298 87.4717 98.0011 89.1165C101.972 90.7613 105.367 93.5469 107.755 97.1208C110.143 100.695 111.417 104.897 111.417 109.195C111.413 114.957 109.122 120.482 105.048 124.556C100.974 128.631 95.4494 130.922 89.6875 130.928Z" fill="#621EA6"/>
<path d="M103.145 99.9003H76.7875C76.7166 99.8968 76.647 99.9209 76.5934 99.9675C76.5398 100.014 76.5064 100.08 76.5 100.15V106.53C76.5013 106.567 76.5098 106.602 76.525 106.635C76.5402 106.668 76.5618 106.698 76.5886 106.722C76.6154 106.746 76.6467 106.765 76.6809 106.777C76.7151 106.79 76.7513 106.795 76.7875 106.793H103.145C103.182 106.796 103.218 106.791 103.253 106.779C103.288 106.767 103.32 106.748 103.347 106.724C103.374 106.699 103.397 106.67 103.412 106.636C103.428 106.603 103.436 106.567 103.438 106.53V100.158C103.431 100.086 103.397 100.02 103.342 99.9731C103.288 99.9264 103.217 99.903 103.145 99.9078M103.145 111.295H76.7875C76.7143 111.293 76.643 111.319 76.5891 111.369C76.5353 111.418 76.5032 111.487 76.5 111.56V117.94C76.5051 118.012 76.5383 118.078 76.5921 118.125C76.646 118.172 76.7163 118.195 76.7875 118.19H103.145C103.217 118.196 103.288 118.173 103.343 118.126C103.398 118.079 103.432 118.012 103.438 117.94V111.56C103.436 111.524 103.427 111.488 103.411 111.454C103.396 111.421 103.374 111.391 103.347 111.367C103.319 111.342 103.288 111.323 103.253 111.311C103.218 111.299 103.182 111.293 103.145 111.295Z" fill="#621EA6"/>
</g>
<defs>
<clipPath id="clip0_54_182">
<rect width="180" height="180" fill="white"/>
</clipPath>
</defs>
</svg>
