<svg width="180" height="180" viewBox="0 0 180 180" fill="none" xmlns="http://www.w3.org/2000/svg">
<g clip-path="url(#clip0_54_187)">
<path d="M-0.27002 180.025L-0.27002 -0.27002H180.025V180.025H-0.27002Z" fill="#621EA6"/>
<path d="M12.7801 22.2325C11.7501 22.785 8.82762 23.5925 7.80762 24.1025V19.215C9.16762 18.6625 12.9501 16.835 14.2251 15.4325H19.3676V49.8575H12.7801V22.2325ZM19.9626 40.04V38.85H26.5001V40C26.5426 43.3575 27.1376 44.93 29.3051 44.93C31.5151 44.93 31.9826 43.23 31.9826 39.9575C31.9826 36.515 31.1751 34.56 28.1576 34.475C27.7768 34.4307 27.3931 34.4165 27.0101 34.4325V29.6275H28.0301C31.0901 29.6275 31.9826 28.055 31.9826 24.5275C31.9826 21.7775 31.3451 20.1925 29.1776 20.1925C27.0101 20.1925 26.5501 22.0625 26.5001 24.75V26.28H19.9626V24.4C19.9626 18.365 23.3626 14.965 29.1851 14.965C35.0501 14.965 38.4501 18.195 38.4501 24.1875C38.4501 28.225 36.5801 31.03 34.1151 31.71C36.6151 32.645 38.4501 34.94 38.4501 39.8275C38.4501 46.0775 35.9501 50.4525 29.2276 50.4525C22.3426 50.4525 19.9626 46.2875 19.9626 40.04ZM59.9001 15.4075H62.4676L65.1001 28.57H62.8726L62.3526 25.53H60.0626L59.5251 28.57H57.2751L59.9001 15.4075ZM62.0926 24L61.2001 18.475L60.3051 24H62.0926ZM70.6401 20.1525V19.015C70.6401 17.91 70.6251 17.015 69.4051 17.015C68.1851 17.015 68.0576 17.9575 68.0576 19.16V24.865C68.0576 26.295 68.3501 26.9775 69.4051 26.9775C70.5926 26.9775 70.6401 26.05 70.6401 24.88V23.695H72.9476V24.75C72.9476 26.9775 72.2326 28.6175 69.7151 28.75V29.5625C70.9176 29.5625 71.7301 30.1 71.7301 31.1075C71.7301 32.26 70.7051 32.7475 69.5201 32.7475C69.1237 32.7436 68.7298 32.6839 68.3501 32.57V31.545C68.6341 31.6334 68.9302 31.6773 69.2276 31.675C69.7951 31.675 70.2276 31.5125 70.2276 31.075C70.2276 30.49 69.5626 30.2775 68.7976 30.1975V28.7175C66.3926 28.4675 65.6451 26.735 65.6451 24.3625V19.665C65.6451 16.9675 66.5076 15.26 69.3951 15.26C72.0926 15.26 72.9526 16.76 72.9526 19.0475V20.1525H70.6401ZM76.1001 15.4075H78.6676L81.3001 28.57H79.0751L78.5551 25.53H76.2626L75.7276 28.57H73.4776L76.1001 15.4075ZM76.6001 12.9075C76.1776 12.9075 76.0301 13.1575 76.0301 13.575H74.8926C74.8926 12.405 75.2176 11.5275 76.2751 11.5275C77.0701 11.5275 77.6076 12.2775 78.3051 12.2775C78.6801 12.2775 78.8251 12.05 78.8251 11.6275H79.8976C79.8976 12.65 79.7201 13.675 78.6626 13.675C77.8226 13.685 77.2701 12.92 76.6051 12.92L76.6001 12.9075ZM78.2951 24L77.4001 18.475L76.5001 24H78.2951ZM81.7876 24.4425V19.5C81.7876 16.835 82.7626 15.25 85.5901 15.25C88.4176 15.25 89.3776 16.8275 89.3776 19.5V24.4425C89.3776 27.09 88.4026 28.7475 85.5901 28.7475C82.7776 28.7475 81.7876 27.1075 81.7876 24.4425ZM86.9401 25V18.95C86.9401 17.845 86.7601 17.015 85.5901 17.015C84.4201 17.015 84.2251 17.845 84.2251 18.95V25C84.2251 26.09 84.4051 26.9675 85.5901 26.9675C86.7751 26.9675 86.9401 26.1 86.9401 25ZM93.9101 24.36V19.665C93.9101 16.9675 94.7701 15.26 97.6601 15.26C100.36 15.26 101.22 16.76 101.22 19.0475V20.1525H98.9126V19.015C98.9126 17.91 98.8951 17.015 97.6776 17.015C96.4601 17.015 96.3276 17.9575 96.3276 19.16V24.865C96.3276 26.295 96.6201 26.9775 97.6776 26.9775C98.8626 26.9775 98.9126 26.05 98.9126 24.88V23.695H101.22V24.75C101.22 27.075 100.44 28.75 97.6601 28.75C94.7701 28.75 93.9101 26.9275 93.9101 24.36ZM102.198 24.4425V19.5C102.198 16.835 103.173 15.25 106 15.25C108.828 15.25 109.785 16.8275 109.785 19.5V24.4425C109.785 27.09 108.81 28.7475 106 28.7475C103.19 28.7475 102.198 27.1075 102.198 24.4425ZM107.348 25.01V18.95C107.348 17.845 107.17 17.015 106 17.015C104.83 17.015 104.635 17.845 104.635 18.95V25C104.635 26.09 104.813 26.9675 106 26.9675C107.188 26.9675 107.348 26.1 107.348 25V25.01ZM111.07 15.4075H112.75L115.953 22.9075V15.4075H117.935V28.57H116.343L113.118 20.705V28.57H111.07V15.4075ZM120.75 17.1775H118.653V15.4075H125.203V17.1775H123.155V28.57H120.75V17.1775ZM125.923 15.4075H129.09C131.723 15.4075 133.218 16.2525 133.218 18.9075C133.218 20.485 132.828 21.59 131.593 22.0925L133.43 28.5775H131.025L129.448 22.5475H128.31V28.5775H125.923V15.4075ZM129.075 21.045C130.455 21.045 130.96 20.445 130.96 19.03C130.96 17.6975 130.585 17.0475 129.21 17.0475H128.315V21.0475L129.075 21.045ZM136.518 15.4075H139.085L141.718 28.57H139.5L138.98 25.53H136.69L136.153 28.57H133.903L136.518 15.4075ZM138.71 24L137.818 18.475L136.923 24H138.71ZM147.973 15.4075H150.54L153.173 28.57H150.948L150.428 25.53H148.135L147.6 28.57H145.35L147.973 15.4075ZM150.168 24L149.273 18.475L148.38 24H150.168ZM58.1276 36.9075H60.6276L62.4951 46.0225L64.4301 36.9075H66.8501L67.1001 50.07H65.3126L65.1176 40.92L63.2476 50.07H61.8026L59.9001 40.8875L59.7226 50.07H57.9001L58.1276 36.9075ZM68.4476 45.8125V36.9075H70.7876V46.0875C70.7876 47.3375 70.9326 48.46 72.1526 48.46C73.3726 48.46 73.5326 47.34 73.5326 46.0875V36.9075H75.8576V45.8125C75.8576 48.575 75.0926 50.2475 72.1526 50.2475C69.2126 50.2475 68.4476 48.575 68.4476 45.8125ZM77.2501 36.9075H80.3526C83.5551 36.9075 84.5301 38.19 84.5301 41.0025V45.795C84.5301 48.6875 83.5301 50.07 80.4501 50.07H77.2501V36.9075ZM80.3851 48.4075C82.0276 48.4075 82.0926 47.53 82.0926 45.89V40.84C82.0926 39.2625 81.9301 38.6125 80.3426 38.6125H79.6276V48.395L80.3851 48.4075ZM87.6876 36.9075H90.2501L92.8826 50.07H90.6551L90.1351 47.03H87.8501L87.3126 50.07H85.0626L87.6876 36.9075ZM89.8801 45.5L89.0001 39.9775L88.0926 45.5H89.8801ZM93.7151 36.9075H95.3901L98.5901 44.4075V36.9075H100.573V50.07H98.9801L95.7626 42.205V50.07H93.7151V36.9075ZM106.878 41.6525V40.515C106.878 39.41 106.863 38.515 105.643 38.515C104.423 38.515 104.295 39.4575 104.295 40.66V46.365C104.295 47.795 104.588 48.4775 105.643 48.4775C106.83 48.4775 106.878 47.55 106.878 46.38V45.195H109.185V46.25C109.185 48.4775 108.47 50.1175 105.953 50.25V51.0625C107.155 51.0625 107.968 51.6 107.968 52.6075C107.968 53.76 106.943 54.2475 105.758 54.2475C105.361 54.2436 104.967 54.1839 104.588 54.07V53.045C104.872 53.1334 105.168 53.1773 105.465 53.175C106.033 53.175 106.465 53.0125 106.465 52.575C106.465 51.99 105.8 51.7775 105.035 51.6975V50.2175C102.63 49.9675 101.883 48.235 101.883 45.8625V41.165C101.883 38.4675 102.745 36.76 105.633 36.76C108.33 36.76 109.19 38.26 109.19 40.5475V41.6525H106.878ZM112.338 36.9075H114.905L117.538 50.07H115.313L114.793 47.03H112.5L111.963 50.07H109.713L112.338 36.9075ZM114.53 45.5L113.638 39.975L112.75 45.5H114.53ZM121.615 45.73V41.31C121.615 38.4825 122.478 36.76 125.365 36.76C128.063 36.76 129.005 38.1575 129.005 40.595V41.2775H126.713V40.5275C126.713 39.26 126.583 38.5125 125.398 38.5125C124.13 38.5125 124.033 39.5375 124.033 40.74V46.24C124.033 47.605 124.283 48.4675 125.463 48.4675C126.643 48.4675 126.908 47.5575 126.908 46.1275V44.8925H125.5V43.38H129.075V50.06H127.515L127.353 48.775C126.995 49.62 126.353 50.2375 125.125 50.2375C122.525 50.25 121.615 48.5 121.615 45.73ZM130.423 36.9075H132.813V48.4275H136.013V50.07H130.423V36.9075ZM136.403 45.9425V41C136.403 38.335 137.378 36.75 140.205 36.75C143.033 36.75 144 38.3375 144 41V45.94C144 48.5875 143.025 50.245 140.213 50.245C137.4 50.245 136.403 48.6075 136.403 45.9425ZM141.555 46.5V40.45C141.555 39.345 141.375 38.515 140.205 38.515C139.035 38.515 138.84 39.345 138.84 40.45V46.5C138.84 47.59 139.02 48.4675 140.205 48.4675C141.39 48.4675 141.555 47.6 141.555 46.5ZM145.275 36.9075H148.525C150.833 36.9075 152.378 37.6875 152.378 40.2875C152.378 41.895 151.71 42.7875 150.475 42.985C152.02 43.2775 152.75 44.3825 152.75 46.235C152.75 48.7525 151.515 50.07 149.078 50.07H145.275V36.9075ZM148.5 42.285C149.93 42.285 150.305 41.6525 150.305 40.32C150.305 38.9225 149.623 38.57 148.16 38.57H147.66V42.275L148.5 42.285ZM148.598 48.38C150.06 48.38 150.468 47.6975 150.468 46.2175C150.468 44.6575 149.948 43.9425 148.518 43.9425H147.673V48.38H148.598ZM155.79 36.9075H158.358L161 50.07H158.773L158.25 47.03H155.96L155.423 50.07H153.173L155.79 36.9075ZM157.983 45.5L157.09 39.975L156.195 45.5H157.983ZM161.818 36.9075H164.208V48.4275H167.408V50.07H161.818V36.9075ZM57.9326 58.4075H61.0376C64.2376 58.4075 65.2126 59.69 65.2126 62.5025V67.295C65.2126 70.1875 64.2126 71.57 61.1351 71.57H57.9326V58.4075ZM61.0701 69.895C62.7101 69.895 62.7751 69.0175 62.7751 67.3775V62.34C62.7751 60.7625 62.6126 60.1125 61.0376 60.1125H60.3226V69.895H61.0701ZM66.2851 67.4425V62.5C66.2851 59.835 67.2601 58.25 70.0876 58.25C72.9151 58.25 73.8751 59.8275 73.8751 62.5V67.44C73.8751 70.0875 72.9001 71.745 70.0876 71.745C67.2751 71.745 66.2851 70.1075 66.2851 67.4425ZM71.4376 68V61.95C71.4376 60.845 71.2576 60.015 70.0876 60.015C68.9176 60.015 68.7226 60.845 68.7226 61.95V68C68.7226 69.09 68.9026 69.9675 70.0876 69.9675C71.2726 69.9675 71.4376 69.1 71.4376 68ZM78.4076 67.36V62.665C78.4076 59.9675 79.2701 58.26 82.1576 58.26C84.8551 58.26 85.7151 59.76 85.7151 62.0475V63.1525H83.4076V62.015C83.4076 60.91 83.3926 60.015 82.1726 60.015C80.9526 60.015 80.8251 60.9575 80.8251 62.16V67.865C80.8251 69.295 81.1176 69.9775 82.1726 69.9775C83.3601 69.9775 83.4076 69.05 83.4076 67.88V66.695H85.7151V67.75C85.7151 70.075 84.9351 71.75 82.1576 71.75C79.2701 71.75 78.4076 69.9275 78.4076 67.36ZM86.9051 58.4075H89.2951V69.9275H92.5001V71.57H86.9051V58.4075ZM93.3251 58.4075H95.6976V71.57H93.3251V58.4075ZM97.4351 58.4075H99.9226L101.79 67.5225L103.725 58.4075H106.145L106.395 71.57H104.608L104.413 62.42L102.543 71.57H101.098L99.1951 62.3875L99.0176 71.57H97.2126L97.4351 58.4075ZM109.818 58.4075H112.385L115.018 71.57H112.793L112.273 68.53H109.98L109.445 71.57H107.195L109.818 58.4075ZM112.013 67L111.118 61.475L110.225 67H112.013ZM157.895 116.703C153.125 110 131.548 83.205 91.3701 83.15C51.1926 83.095 29.5401 109.825 24.7501 116.522C24.5451 116.807 24.3701 117.057 24.2251 117.272C24.3701 117.49 24.5426 117.737 24.7476 118.022C29.5226 124.727 51.0951 151.522 91.2801 151.572C131.465 151.623 153.105 124.892 157.893 118.2C158.103 117.91 158.275 117.665 158.413 117.45C158.275 117.24 158.103 116.993 157.895 116.7M68.9326 100.04C69.2951 99.51 70.5001 97.995 70.6476 97.79C70.9576 97.3925 71.5726 97.3125 72.0026 97.235C72.4326 97.1575 73.0026 97.395 73.0651 97.715C73.1276 98.035 72.9001 99.28 72.6876 99.495C72.0976 100.105 70.5626 100.965 69.7176 100.83C69.0651 100.728 68.8076 100.22 68.9326 100.028M67.5001 102.893C67.5626 102.818 67.6201 102.755 67.6451 102.725C68.1451 102.15 69.1576 102.028 69.8526 101.92C70.5476 101.813 71.4776 102.153 71.5901 102.617C71.7026 103.082 69.8401 103.92 69.5001 104.235C68.5326 105.125 67.0151 106.937 66.1301 107.13C65.888 107.192 65.6319 107.165 65.4076 107.055C65.9875 105.611 66.6875 104.219 67.5001 102.893ZM82.5001 133.763C81.9526 135.903 81.3176 136.673 80.7751 137.345C80.2326 138.018 78.2276 138.895 76.9551 138.8C75.6826 138.705 75.5101 135.3 75.5126 133.55C75.5126 132.945 74.6576 134.735 74.2151 131.098C73.9351 128.768 72.4351 131.348 72.3326 129.785C72.2301 128.223 71.4826 128.535 70.6976 127.572C69.9126 126.61 68.9476 127.665 67.8501 128.153C66.7526 128.64 67.2101 128.903 65.6676 128.403C65.6276 128.403 65.6076 128.38 65.5701 128.365C64.118 124.916 63.3749 121.21 63.3851 117.468C63.3851 116.523 63.4376 115.595 63.5276 114.675C63.5778 114.587 63.6355 114.503 63.7001 114.425C65.1851 112.675 65.1526 112.265 65.1526 112.265L66.7901 111.7C68.3478 111.951 69.8809 112.336 71.3726 112.85C72.9951 113.462 75.5501 114.85 77.0351 114.238C78.1101 113.795 78.9526 113.21 78.8526 112.315C78.7326 111.193 77.8526 110.925 76.7776 111.68C76.3826 111.957 75.5451 109.987 74.8851 110.085C74.2251 110.182 75.6976 112.403 75.1351 112.495C74.5726 112.587 73.4501 110.182 73.2576 109.792C73.0651 109.403 72.2001 108.438 71.4176 109.173C69.7651 110.74 67.0851 110.64 66.5451 111.042C64.9051 112.267 64.4751 110.637 64.5126 109.645C64.5776 109.417 64.6451 109.188 64.7176 108.965C65.2551 108.375 67.1751 108.182 67.8351 108.623C68.5576 109.108 69.0851 108.5 69.3601 108.207C69.6351 107.915 69.5476 107.457 69.3601 107.07C69.1726 106.682 69.7226 106.395 70.0976 106.298C70.4726 106.2 71.7251 105.325 72.2226 105.035C72.7201 104.745 75.3126 104.435 76.4726 105.018C76.9315 105.261 77.4606 105.339 77.9701 105.237C78.4796 105.134 78.938 104.859 79.2676 104.457C79.839 103.778 80.5263 103.206 81.2976 102.768C81.7051 102.58 80.2976 101.267 79.1451 102.695C77.9926 104.122 77.3951 104.245 76.8526 104.245C76.3101 104.245 73.0801 103.433 72.6826 102.41C72.2851 101.388 73.6826 100.627 74.8901 100.052C76.0976 99.4775 79.3451 99.4975 80.1801 99.3025C81.8751 98.9325 84.0451 98.0825 85.1376 98.8275C86.2301 99.5725 80.5726 100.84 82.4276 101.845C83.0876 102.208 86.0776 100.13 87.1001 99.595C89.5101 98.3575 84.7701 97.94 85.3876 95.4175C86.0876 92.565 79.5751 93.6675 76.3276 93.8975C80.0898 91.4985 84.3712 90.0338 88.8145 89.6258C93.2579 89.2177 97.7344 89.878 101.871 91.5516C106.007 93.2253 109.683 95.8637 112.592 99.2468C115.502 102.63 117.56 106.66 118.595 111C118.61 111.436 118.564 111.872 118.458 112.295C118.208 113.295 116.288 114.167 115.178 112.545C114.898 112.135 113.698 111 113.735 112.938C113.773 114.875 115.618 115.08 113.828 116.242C112.038 117.405 111.71 117.122 110.883 117.415C110.055 117.708 109.255 119.702 109.45 120.772C109.645 121.842 112.2 124.773 110.305 124.64C109.86 124.605 106.518 122.318 105.968 120.848C105.388 119.3 104.755 117.785 104.305 116.617C103.855 115.45 102.67 115.157 101.668 115.84C100.665 116.523 101.945 117.203 101.225 118.66C100.505 120.118 99.9976 121.41 98.9476 120.21C96.2201 117.075 92.2476 118.612 91.6301 115.13C91.2951 113.24 89.6701 113.42 88.3101 112.348C86.9501 111.275 86.1851 110.703 85.9551 111.473C85.7501 112.148 90.2276 115.705 90.5451 116.617C91.0176 117.97 89.2001 119.16 87.8676 119.477C86.5351 119.795 85.9626 118.727 84.6601 117.37C83.3576 116.013 82.7876 115.04 82.6951 116.105C82.5626 117.645 83.9301 119.91 85.2576 120.757C86.3876 121.475 87.6576 121.803 87.2876 122.965C86.9176 124.127 87.2876 123.465 86.0101 124.715C84.7326 125.965 84.4951 126.383 84.5851 128.123C84.6751 129.862 84.2201 129.973 83.9451 131.425C83.6701 132.878 83.0401 131.62 82.4901 133.75M112.53 122.63C113.473 122.555 114.883 123.86 114.33 124.36C113.778 124.86 112.368 124.673 111.663 124.11C110.958 123.548 112.108 122.655 112.53 122.623M111.343 121.76C111.04 121.647 110.775 121.36 110.548 120.673C110.32 119.985 110.898 119.595 111.463 119.873C112.028 120.15 112.78 121.023 112.78 121.48C112.78 121.937 111.65 121.882 111.343 121.76ZM99.0001 121.715C98.4451 122.215 97.0301 122.025 96.3226 121.465C95.6151 120.905 96.7726 120.01 97.1926 119.977C98.1351 119.895 99.5476 121.212 99.0001 121.71M87.5501 127.25C87.1651 127.88 86.1051 132.585 85.4001 132.035C84.6951 131.485 85.6926 126.578 85.9001 126.205C87.0076 124.178 89.4001 124.28 87.5526 127.25M91.3326 145.5C88.6701 145.495 86.0219 145.111 83.4676 144.36C83.2681 144.201 83.1267 143.981 83.0657 143.734C83.0046 143.486 83.0273 143.226 83.1301 142.992C84.0001 140.742 86.5801 139.855 88.6176 139.663C93.1551 139.225 99.1176 142.623 100.068 142.078C101.018 141.533 102.94 139.04 105.758 139.148C107.678 139.225 107.663 139.548 108.308 139.79C103.43 143.509 97.4632 145.516 91.3301 145.5M111.08 137.378C110.778 137.298 110.484 137.189 110.203 137.053C108.675 136.273 108.858 137.515 108.105 137.24C107.353 136.965 108.958 135.218 106.698 136.69C104.438 138.163 105.058 136.46 104.08 133.968C103.103 131.475 105.218 128.638 107 128C109.433 127.123 110.943 126.945 112.083 126.665C115.448 125.83 116.16 123.835 116.77 125.05C116.885 125.278 116.995 125.495 117.095 125.697C117.368 126.268 117.514 126.89 117.525 127.522C116.105 131.229 113.913 134.592 111.095 137.388M118.783 123.268C118.033 123.06 114.895 118.712 117.383 115.855C117.798 115.385 116.553 114.002 116.883 113.975C118.243 113.87 118.965 114.725 119.32 115.932C119.345 116.468 119.368 117.007 119.365 117.555C119.362 119.474 119.163 121.388 118.773 123.268" fill="white"/>
</g>
<defs>
<clipPath id="clip0_54_187">
<rect width="180" height="180" fill="white"/>
</clipPath>
</defs>
</svg>
