<svg width="180" height="180" viewBox="0 0 180 180" fill="none" xmlns="http://www.w3.org/2000/svg">
<g clip-path="url(#clip0_54_177)">
<path d="M-0.27002 -0.269997H180.27V180.27H-0.27002V-0.269997Z" fill="#621EA6"/>
<path d="M23.6825 41.7825H13.2275V36.6825L22.195 15.4325H29.8025V36.81H33.16V41.7825H29.8025V49.8575H23.6825V41.7825ZM23.6825 36.81V22.19L18.4125 36.81H23.6825ZM47.25 15.4075H52.775V17.0975H49.63V20.8825H52.1V22.5575H49.63V26.9275H52.7975V28.57H47.25V15.4075ZM54.115 15.4075H57.2175C60.42 15.4075 61.395 16.69 61.395 19.5025V24.295C61.395 27.1875 60.395 28.57 57.315 28.57H54.115V15.4075ZM57.25 26.895C58.8925 26.895 58.9575 26.0175 58.9575 24.3775V19.34C58.9575 17.7625 58.795 17.1125 57.2075 17.1125H56.5V26.895H57.25ZM63 24.3125V15.4075H65.34V24.5875C65.34 25.8375 65.485 26.96 66.705 26.96C67.925 26.96 68.085 25.84 68.085 24.5875V15.4075H70.41V24.3125C70.41 27.0625 69.645 28.7475 66.705 28.7475C63.765 28.7475 63 27.075 63 24.3125ZM72 24.36V19.665C72 16.9675 72.85 15.25 75.75 15.25C78.4475 15.25 79.31 16.75 79.31 19.0375V20.1425H77V19.015C77 17.91 76.9825 17.015 75.765 17.015C74.5475 17.015 74.415 17.9575 74.415 19.16V24.865C74.415 26.295 74.7075 26.9775 75.765 26.9775C76.95 26.9775 77 26.05 77 24.88V23.695H79.3075V24.75C79.3075 27.075 78.5275 28.75 75.7475 28.75C72.85 28.75 72 26.9275 72 24.36ZM82.86 15.4075H85.4275L88.06 28.57H85.835L85.315 25.53H83.0225L82.5 28.57H80.25L82.86 15.4075ZM85.055 24L84.16 18.475L83.2675 24H85.055ZM94 20.1525V19.015C94 17.91 93.985 17.015 92.765 17.015C91.545 17.015 91.4175 17.9575 91.4175 19.16V24.865C91.4175 26.295 91.71 26.9775 92.765 26.9775C93.9525 26.9775 94 26.05 94 24.88V23.695H96.3075V24.75C96.3075 26.9775 95.5925 28.6175 93.075 28.75V29.5625C94.2775 29.5625 95.09 30.1 95.09 31.1075C95.09 32.26 94.065 32.7475 92.88 32.7475C92.4836 32.7436 92.0898 32.6839 91.71 32.57V31.545C91.9941 31.6334 92.2901 31.6773 92.5875 31.675C93.155 31.675 93.5875 31.5125 93.5875 31.075C93.5875 30.49 92.9225 30.2775 92.1575 30.1975V28.7175C89.7525 28.4675 89.005 26.735 89.005 24.3625V19.665C89 16.9675 89.865 15.25 92.75 15.25C95.4475 15.25 96.3075 16.75 96.3075 19.0375V20.1425L94 20.1525ZM99.875 15.4075H102.443L105.075 28.57H102.848L102.328 25.53H100.038L99.5 28.57H97.25L99.875 15.4075ZM100.375 12.9075C99.9525 12.9075 99.8075 13.1575 99.8075 13.575H98.67C98.67 12.405 98.995 11.5275 100.05 11.5275C100.848 11.5275 101.383 12.2775 102.083 12.2775C102.455 12.2775 102.603 12.05 102.603 11.6275H103.675C103.675 12.65 103.495 13.675 102.44 13.675C101.598 13.685 101.045 12.92 100.378 12.92L100.375 12.9075ZM102.068 24L101.175 18.475L100.28 24H102.068ZM105.968 24.4425V19.5C105.968 16.835 106.943 15.25 109.77 15.25C112.598 15.25 113.558 16.8275 113.558 19.5V24.4425C113.558 27.09 112.583 28.7475 109.77 28.7475C106.958 28.7475 105.968 27.1075 105.968 24.4425ZM111.12 25V18.95C111.12 17.845 110.94 17.015 109.77 17.015C108.6 17.015 108.405 17.845 108.405 18.95V25C108.405 26.09 108.585 26.9675 109.77 26.9675C110.955 26.9675 111.12 26.1 111.12 25ZM47.25 36.9075H50.355C53.555 36.9075 54.53 38.19 54.53 41.0025V45.795C54.53 48.6875 53.53 50.07 50.4525 50.07H47.25V36.9075ZM50.3875 48.4075C52.0275 48.4075 52.0925 47.53 52.0925 45.89V40.84C52.0925 39.2625 51.93 38.6125 50.3425 38.6125H49.6275V48.395L50.3875 48.4075ZM56.21 36.9075H61.735V38.5975H58.6V42.3825H61.07V44.0575H58.6V48.4275H61.7675V50.07H56.21V36.9075ZM70.82 50.2325C70.7281 50.2454 70.6353 50.2504 70.5425 50.2475C67.7 50.25 66.75 48.6075 66.75 45.9425V41C66.75 38.335 67.725 36.75 70.5525 36.75C73.38 36.75 74.34 38.3275 74.34 41V45.94C74.34 47.825 73.84 49.2225 72.52 49.84C72.8957 50.3231 73.3385 50.7499 73.835 51.1075L73.38 52.7C72.575 52.3275 71.47 51.2075 70.82 50.2325ZM71.9075 46.5V40.45C71.9075 39.345 71.7125 38.515 70.5425 38.515C69.3725 38.515 69.1775 39.345 69.1775 40.45V46.5C69.1775 47.59 69.3575 48.4675 70.5425 48.4675C71.7275 48.4675 71.9075 47.6 71.9075 46.5ZM75.9375 45.8125V36.9075H78.2775V46.0875C78.2775 47.3375 78.425 48.46 79.6425 48.46C80.86 48.46 81.025 47.34 81.025 46.0875V36.9075H83.3475V45.8125C83.3475 48.575 82.585 50.2475 79.6425 50.2475C76.7 50.2475 75.9375 48.575 75.9375 45.8125ZM87.0525 36.9075H89.62L92.25 50.07H90.025L89.5 47.03H87.2075L86.6725 50.07H84.4225L87.0525 36.9075ZM89.25 45.5L88.355 39.975L87.46 45.5H89.25ZM93.5 36.9075H95.89V48.4275H99.09V50.07H93.5V36.9075ZM100.313 36.9075H102.685V50.07H100.313V36.9075ZM104.635 36.9075H107.75C110.95 36.9075 111.925 38.19 111.925 41.0025V45.795C111.925 48.6875 110.925 50.07 107.848 50.07H104.635V36.9075ZM107.773 48.4075C109.413 48.4075 109.478 47.53 109.478 45.89V40.84C109.478 39.2625 109.315 38.6125 107.728 38.6125H107.025V48.395L107.773 48.4075ZM115.475 36.9075H118.043L120.675 50.07H118.448L117.928 47.03H115.635L115.1 50.07H112.85L115.475 36.9075ZM117.668 45.5L116.775 39.975L115.88 45.5H117.668ZM121.908 36.9075H125.013C128.215 36.9075 129.19 38.19 129.19 41.0025V45.795C129.19 48.6875 128.19 50.07 125.11 50.07H121.908V36.9075ZM125.045 48.4075C126.685 48.4075 126.75 47.53 126.75 45.89V40.84C126.75 39.2625 126.59 38.6125 125.013 38.6125H124.298V48.395L125.045 48.4075ZM130.878 36.9075H136.403V38.5975H133.268V42.3825H135.75V44.0575H133.28V48.4275H136.448V50.07H130.878V36.9075ZM79.74 96.5625L47.21 77.78V138.542L79.74 148.355V96.5625ZM83.3175 96.6875V148.378L116.058 138.535V77.7825L83.3175 96.6875ZM133.895 137.465L137.745 150.915L141.59 137.465V83.405H133.895V137.465Z" fill="white"/>
<path d="M123.775 76.0881L120.29 73.3331V135.888L84.145 147.566H80.4725L44.49 137.513V73.3331L41 76.0881V139.961L80.3075 150.843H84.31L120.572 139.328L123.775 138.386V76.0881ZM142.325 71.9481C142.338 71.4344 142.248 70.9233 142.061 70.4449C141.873 69.9665 141.592 69.5305 141.233 69.1625C140.874 68.7946 140.446 68.5022 139.972 68.3025C139.499 68.1029 138.99 68 138.476 68C137.962 68 137.454 68.1029 136.98 68.3025C136.507 68.5022 136.078 68.7946 135.719 69.1625C135.361 69.5305 135.079 69.9665 134.892 70.4449C134.704 70.9233 134.614 71.4344 134.628 71.9481V76.0981H142.325V71.9481Z" fill="white"/>
</g>
<defs>
<clipPath id="clip0_54_177">
<rect width="180" height="180" fill="white"/>
</clipPath>
</defs>
</svg>
