<svg width="25" height="25" viewBox="0 0 25 25" fill="none" xmlns="http://www.w3.org/2000/svg">
<path d="M2.69797 9.67297L4.19469 11.1697C4.48531 11.4603 4.87766 11.625 5.28937 11.625H6.33078C6.7425 11.625 7.13484 11.7897 7.42547 12.0803L8.84469 13.4995C9.13531 13.7902 9.3 14.1825 9.3 14.5942V16.4106C9.3 16.8223 9.46469 17.2147 9.75531 17.5053L10.3995 18.1495C10.6902 18.4402 10.8548 18.8325 10.8548 19.2442V20.15C10.8548 21.0073 11.5475 21.7 12.4048 21.7C13.2622 21.7 13.9548 21.0073 13.9548 20.15V20.0192C13.9548 19.6075 14.1195 19.2152 14.4102 18.9245L16.6044 16.7303C16.895 16.4397 17.0597 16.0473 17.0597 15.6356V13.9548C17.0597 13.0975 16.367 12.4048 15.5097 12.4048H11.5039C11.0922 12.4048 10.6998 12.2402 10.4092 11.9495L9.63422 11.1745C9.43078 10.9711 9.31453 10.6902 9.31453 10.3995C9.31453 9.79406 9.80375 9.30484 10.4092 9.30484H12.09C12.6955 9.30484 13.1847 8.81563 13.1847 8.21016C13.1847 7.91953 13.0684 7.63859 12.865 7.43516L11.9108 6.48094C11.7219 6.29688 11.625 6.05953 11.625 5.8125C11.625 5.56547 11.7219 5.32812 11.9011 5.14891L12.7391 4.31094C13.02 4.03 13.1798 3.64734 13.1798 3.25016C13.1798 2.90141 13.0636 2.58656 12.8698 2.33469C12.7148 2.32984 12.5598 2.325 12.4048 2.325C7.78391 2.325 3.89438 5.43469 2.70281 9.67297H2.69797ZM22.475 12.4C22.475 10.7241 22.0681 9.145 21.3416 7.75969C21.0316 7.80328 20.7264 7.94859 20.4745 8.20047L19.8255 8.84953C19.5348 9.14016 19.3702 9.5325 19.3702 9.94422V11.625C19.3702 12.4823 20.0628 13.175 20.9202 13.175H22.0875C22.2086 13.175 22.3297 13.1605 22.4411 13.1363C22.4605 12.8941 22.4653 12.647 22.4653 12.4H22.475ZM0 12.4C0 5.55094 5.55094 0 12.4 0C19.2491 0 24.8 5.55094 24.8 12.4C24.8 19.2491 19.2491 24.8 12.4 24.8C5.55094 24.8 0 19.2491 0 12.4Z" fill="#FFDE59"/>
</svg>
